<?xml version="1.0" standalone="no"?>
<!DOCTYPE svg PUBLIC "-//W3C//DTD SVG 1.1//EN" "http://www.w3.org/Graphics/SVG/1.1/DTD/svg11.dtd" >
<!--
2013-9-30: Created.
-->
<svg>
<metadata>
Created by iconfont
</metadata>
<defs>

<font id="iconfont" horiz-adv-x="1024" >
  <font-face
    font-family="iconfont"
    font-weight="500"
    font-stretch="normal"
    units-per-em="1024"
    ascent="896"
    descent="-128"
  />
    <missing-glyph />
    
    <glyph glyph-name="filter-line" unicode="&#59422;" d="M78.7 855.4H0l302.3-468.5v-275.5h0.1l-0.1-0.4 417.7-198.5 0.1 474.4 304 468.5H78.7z m517.2-431.7l0.1-314.5-169 80.4V423.7L227 731h568.4L595.9 423.7z m0 0"  horiz-adv-x="1024" />

    
    <glyph glyph-name="delete" unicode="&#59423;" d="M355.84 424.96h118.272v-314.368H355.84zM549.376 423.424h118.272v-314.368h-118.272zM749.568 661.504V896H276.48v-234.496H38.4v-118.272h81.408V-128h118.272v2.048h547.84v-2.048h118.272V543.232h80.896l0.512 118.272zM394.752 777.728h236.544v-115.712H394.752z m391.68-784.896h-547.84V543.232h547.84z"  horiz-adv-x="1024" />

    
    <glyph glyph-name="free-shipping" unicode="&#59424;" d="M1024 458.24l-105.472 148.992h-167.936V771.584H0v-673.792h75.264c19.456-58.88 75.264-101.376 140.8-101.376s120.832 42.496 140.8 101.376h232.96c19.456-58.88 75.264-101.376 140.8-101.376s120.832 42.496 140.8 101.376H1024V458.24z m-383.488 203.776v-399.36c-18.944-14.336-34.304-33.28-44.544-55.296h-245.76c-23.552 50.688-74.752 85.504-134.144 85.504-41.472 0-79.36-17.408-106.496-45.056V662.016h530.944zM216.064 105.984c-21.504 0-38.4 17.408-38.4 38.4s17.408 38.4 38.4 38.4 38.4-17.408 38.4-38.4-16.896-38.4-38.4-38.4z m514.56 0c-21.504 0-38.4 17.408-38.4 38.4s17.408 38.4 38.4 38.4c21.504 0 38.4-17.408 38.4-38.4s-17.408-38.4-38.4-38.4z m183.808 101.376h-49.664c-20.992 44.544-62.976 76.8-113.152 83.968V497.664h110.08l52.736-74.24v-216.064z"  horiz-adv-x="1024" />

    
    <glyph glyph-name="location-o" unicode="&#59425;" d="M915.456 492.032c0 54.272-10.752 107.52-31.744 157.184-20.48 48.128-49.664 91.648-86.528 128.512-37.376 37.376-80.384 66.048-128.512 86.528C619.008 885.248 565.76 896 511.488 896c-54.272 0-107.52-10.752-157.184-31.744-48.128-20.48-91.648-49.664-128.512-86.528-37.376-37.376-66.048-80.384-86.528-128.512-20.992-49.664-31.744-102.912-31.744-157.184s10.752-107.52 31.744-157.184c14.336-34.304 33.28-66.048 56.832-95.232l263.68-342.528c12.288-15.36 30.72-24.576 51.712-24.576 22.016 0 41.984 10.752 54.272 27.648l262.656 340.992c2.56 3.584 5.632 7.168 8.192 10.24l1.024 1.024c18.944 25.6 34.304 52.736 46.592 82.432 20.48 49.664 31.232 102.4 31.232 157.184zM737.28 325.12l-225.792-293.376-214.016 278.016h0.512c-1.536 2.048-3.584 4.096-5.12 6.144l-8.192 10.24C249.344 373.76 230.4 431.616 230.4 492.032c0 74.752 29.184 145.408 82.432 198.656C366.08 743.936 436.224 773.12 511.488 773.12c74.752 0 145.408-29.184 198.656-82.432 52.736-52.736 82.432-123.392 82.432-198.656-0.512-60.928-19.456-118.784-55.296-166.912z m-225.28-22.528c-101.888 0-184.32 82.944-184.32 184.832s82.432 184.832 184.32 184.832 184.832-82.944 184.832-184.832-82.944-184.832-184.832-184.832z m0 258.048c-39.936 0-72.704-32.768-72.704-72.704S472.064 414.72 512 414.72s72.704 32.768 72.704 72.704-32.256 73.216-72.704 73.216z"  horiz-adv-x="1024" />

    
    <glyph glyph-name="list" unicode="&#58934;" d="M455.11 896v-455.11H0V896zM341.33 213.33H113.78v-227.55h227.55z m113.78 113.78V-128H0V327.11zM113.78 782.22v-227.55h227.55V782.22zM568.89 839.11H1024v-113.78H568.89zM568.89 270.22H1024v-113.78H568.89zM568.89 611.56H1024v-113.78H568.89zM568.89 42.67H1024v-113.78H568.89z"  horiz-adv-x="1024" />

    
    <glyph glyph-name="card1" unicode="&#58935;" d="M341.33 782.22H113.78v-227.55h227.55z m568.89 0H682.67v-341.33h227.55zM455.11 896v-455.11H0V896zM1024 896v-568.89H568.89V896zM341.33 213.33H113.78v-227.55h227.55z m568.89-113.77H682.67v-113.78h227.55zM1024 213.33V-128H568.89V213.33zM455.11 327.11V-128H0V327.11z"  horiz-adv-x="1024" />

    
    <glyph glyph-name="chengbao" unicode="&#58883;" d="M861.090909 872.727273h-186.181818v-93.090909h-46.545455v93.090909h-232.727272v-93.090909h-46.545455v93.090909h-186.181818v-279.272728h88.436364l-41.89091-465.454545h-46.545454v-232.727273h325.818182V58.181818c0 18.618182 4.654545 23.272727 23.272727 23.272727s23.272727-4.654545 23.272727-23.272727v-162.909091h325.818182v232.727273h-46.545454l-41.89091 465.454545h93.09091v279.272728z m-46.545454-232.727273h-93.09091l51.2-558.545455h46.545455v-139.636363h-232.727273V58.181818c0 41.890909-27.927273 69.818182-69.818182 69.818182s-69.818182-27.927273-69.818181-69.818182v-116.363636h-232.727273v139.636363h46.545454l51.2 558.545455h-93.090909v186.181818h93.090909v-93.090909h139.636364v93.090909h139.636364v-93.090909h139.636363v93.090909h93.090909v-186.181818zM512 546.909091c-41.890909 0-69.818182-27.927273-69.818182-69.818182v-116.363636h139.636364V477.090909c0 41.890909-27.927273 69.818182-69.818182 69.818182z m23.272727-139.636364h-46.545454V477.090909c0 13.963636 4.654545 23.272727 23.272727 23.272727s23.272727-9.309091 23.272727-23.272727v-69.818182z"  horiz-adv-x="1024" />

    
    <glyph glyph-name="baoxiang" unicode="&#58884;" d="M916.48 701.44S911.36 706.56 327.68 870.4h-10.24C112.64 834.56 15.36 701.44 25.6 476.16c10.24-307.2 25.6-322.56 35.84-332.8l10.24-10.24h5.12l506.88-250.88c5.12-5.12 10.24-10.24 20.48-10.24h10.24l501.76 230.4 5.12 348.16c-5.12 133.12-76.8 215.04-204.8 250.88z m148.48-220.16l-435.2-168.96c20.48 199.68 102.4 312.32 245.76 337.92h5.12c10.24-5.12 20.48-5.12 20.48-5.12 97.28-20.48 153.6-71.68 163.84-163.84zM317.44 819.2c220.16-61.44 378.88-107.52 476.16-138.24-122.88-51.2-189.44-174.08-209.92-368.64L281.6 430.08h-5.12L76.8 506.88c5.12 179.2 81.92 281.6 240.64 312.32z m51.2-563.2l-87.04 35.84v81.92l81.92-30.72 5.12-87.04zM76.8 455.68l153.6-61.44v-133.12L419.84 179.2l-5.12 143.36 158.72-61.44 5.12-317.44L102.4 184.32c-5.12 15.36-15.36 71.68-25.6 271.36z m552.96-522.24l-5.12 327.68 445.44 168.96-5.12-296.96-435.2-199.68z"  horiz-adv-x="1126" />

    
    <glyph glyph-name="shoucang" unicode="&#58885;" d="M1066.890052 515.350785c-10.722513 26.806283-32.167539 48.251309-58.973822 48.251309L804.188482 590.408377c-16.08377 0-37.528796-10.722513-37.528796-26.806283s10.722513-37.528796 26.806283-37.528796l203.727748-26.806282c5.361257 0 5.361257 0 5.361257-5.361257v-5.361256l-214.450262-209.089006c-5.361257-5.361257-10.722513-16.08377-10.722513-26.806282l53.612565-294.86911c0-5.361257 0-5.361257-5.361256-5.361257h-5.361257l-268.062827 139.39267c-10.722513 5.361257-21.445026 5.361257-32.167539 0l-268.062827-139.39267h-5.361257l-5.361256 5.361257 53.612565 294.86911c0 10.722513 0 21.445026-10.722513 26.806282l-214.450262 209.089006v5.361256l5.361257 5.361257L375.287958 542.157068c10.722513 0 21.445026 10.722513 26.806283 16.08377l134.031413 268.062827 5.361257 5.361256s5.361257 0 5.361257-5.361256l112.586387-225.172775c10.722513-16.08377 26.806283-21.445026 42.890052-16.08377 16.08377 10.722513 21.445026 26.806283 16.08377 42.890053L605.82199 853.109948C589.73822 879.91623 562.931937 896 536.125654 896S482.513089 879.91623 471.790576 853.109948L343.120419 601.13089l-278.78534-37.528796c-26.806283-5.361257-53.612565-26.806283-58.973822-53.612565-10.722513-26.806283 0-53.612565 16.083769-75.057592l203.727749-198.366492-48.251309-278.78534c-5.361257-26.806283 5.361257-53.612565 26.806283-69.696335 21.445026-16.08377 53.612565-16.08377 75.057591-5.361257l251.979058 128.670157 251.979057-128.670157c10.722513-5.361257 21.445026-10.722513 32.16754-10.722513 16.08377 0 32.167539 5.361257 42.890052 16.08377 21.445026 16.08377 32.167539 42.890052 26.806283 69.696335l-48.251309 278.78534 203.727749 198.366492c32.167539 21.445026 37.528796 53.612565 26.806282 80.418848z"  horiz-adv-x="1077" />

    
    <glyph glyph-name="gerenshezhi" unicode="&#58886;" d="M947.2 66.56c0 25.6 15.36 46.08 35.84 56.32l-46.08 76.8c-10.24-5.12-20.48-10.24-30.72-10.24-35.84 0-66.56 30.72-66.56 66.56h-92.16c0-35.84-30.72-66.56-66.56-66.56-10.24 0-25.6 5.12-30.72 10.24l-46.08-76.8c20.48-10.24 35.84-30.72 35.84-56.32 0-25.6-15.36-46.08-35.84-56.32l46.08-76.8c10.24 5.12 20.48 10.24 30.72 10.24 35.84 0 66.56-30.72 66.56-66.56h92.16c0 35.84 30.72 66.56 66.56 66.56 10.24 0 20.48-5.12 30.72-10.24l46.08 76.8c-20.48 10.24-35.84 30.72-35.84 56.32z m-15.36-61.44l-15.36-25.6c-46.08 5.12-97.28-20.48-112.64-61.44h-30.72c-20.48 46.08-66.56 71.68-112.64 61.44l-15.36 25.6c30.72 35.84 30.72 92.16 0 128l15.36 25.6c46.08-5.12 97.28 20.48 112.64 61.44h30.72c20.48-46.08 66.56-71.68 112.64-61.44l15.36-25.6c-30.72-40.96-30.72-92.16 0-128zM604.16 291.84c20.48 15.36 51.2 25.6 76.8 25.6-30.72 25.6-66.56 40.96-102.4 56.32 81.92 51.2 133.12 143.36 133.12 240.64C711.68 768 588.8 896 435.2 896c-35.84 0-71.68-5.12-102.4-20.48-102.4-40.96-168.96-143.36-168.96-261.12 0-97.28 51.2-189.44 133.12-240.64l-30.72-15.36C122.88 302.08 25.6 143.36 25.6-20.48v-40.96c5.12-10.24 20.48-15.36 30.72-15.36s25.6 5.12 30.72 15.36v40.96c5.12 153.6 112.64 302.08 256 343.04 25.6 5.12 46.08 10.24 71.68 10.24h25.6c56.32 5.12 112.64-10.24 163.84-40.96zM389.12 409.6c-15.36 0-25.6 5.12-40.96 15.36C276.48 460.8 230.4 532.48 230.4 614.4s46.08 158.72 122.88 194.56c15.36 5.12 25.6 10.24 40.96 15.36 15.36 5.12 30.72 5.12 51.2 5.12 117.76 0 209.92-97.28 209.92-215.04 0-117.76-92.16-215.04-209.92-215.04-20.48 5.12-40.96 5.12-56.32 10.24zM824.32 122.88c-20.48 10.24-46.08 10.24-61.44 0-20.48-10.24-30.72-30.72-30.72-56.32 0-35.84 30.72-61.44 61.44-61.44 35.84 0 61.44 30.72 61.44 61.44 0 25.6-10.24 46.08-30.72 56.32z m-35.84-76.8c-10.24 0-20.48 10.24-20.48 20.48s10.24 20.48 20.48 20.48 20.48-10.24 20.48-20.48-5.12-20.48-20.48-20.48z"  horiz-adv-x="1024" />

    
    <glyph glyph-name="juanzhou" unicode="&#58887;" d="M1014.247619 301.104762c-19.504762 39.009524-48.761905 58.514286-82.895238 68.266667h-9.752381l-53.638095-29.257143c-39.009524 53.638095-68.266667 151.161905-97.52381 243.809524-48.761905 146.285714-87.771429 268.190476-160.914285 287.695238h-9.752381c-151.161905-39.009524-326.704762-97.52381-531.504762-170.666667-4.87619 0-9.752381 0-9.752381-4.876191-9.752381-4.87619-19.504762-14.628571-24.380953-29.257142-9.752381-19.504762-19.504762-68.266667 24.380953-151.161905l9.752381-19.504762 19.504762 4.87619c19.504762 4.87619 48.761905 19.504762 82.895238 34.133334 29.257143-78.019048 58.514286-175.542857 82.895238-263.314286 43.885714-151.161905 82.895238-292.571429 126.780952-355.961905 24.380952-29.257143 53.638095-43.885714 87.771429-43.885714 14.628571 0 34.133333 4.87619 48.761904 9.752381 9.752381 4.87619 19.504762 9.752381 24.380953 19.504762h4.87619l458.361905 263.314286 4.876191 4.87619c24.380952 48.761905 24.380952 92.647619 4.87619 131.657143zM92.647619 554.666667c-19.504762 48.761905-24.380952 78.019048-14.628571 92.647619 0 4.87619 0 4.87619 4.87619 9.752381h19.504762c14.628571-4.87619 34.133333-34.133333 53.638095-78.019048-24.380952-9.752381-48.761905-19.504762-63.390476-24.380952z m404.72381-624.152381c-29.257143-14.628571-58.514286-9.752381-78.019048 14.628571-39.009524 53.638095-78.019048 199.92381-117.028571 336.457143-58.514286 204.8-97.52381 341.333333-151.161905 394.971429 170.666667 58.514286 321.828571 107.27619 448.609524 141.409523 43.885714-19.504762 87.771429-146.285714 121.904761-253.561904 29.257143-92.647619 63.390476-190.171429 102.4-248.685715l-394.971428-190.171428h-4.876191-4.87619c-34.133333-34.133333-29.257143-87.771429 9.752381-156.038095l9.752381-29.257143 19.504762 14.628571c4.87619 4.87619 24.380952 14.628571 58.514285 29.257143v-29.257143c-4.87619-14.628571-14.628571-24.380952-19.504761-24.380952z m-53.638096 146.285714c19.504762-9.752381 39.009524-24.380952 53.638096-43.885714-14.628571-9.752381-29.257143-14.628571-39.009524-19.504762-9.752381 19.504762-19.504762 43.885714-14.628572 63.390476z m526.628572 126.780952l-399.847619-229.180952c0 14.628571-4.87619 34.133333-14.628572 53.638095-14.628571 29.257143-39.009524 53.638095-63.390476 73.142857l438.857143 214.552381c19.504762-4.87619 34.133333-19.504762 43.885714-39.009523 9.752381-19.504762 4.87619-43.885714-4.87619-73.142858zM526.628571 223.085714c4.87619 0 14.628571 4.87619 19.504762 9.752381 9.752381 9.752381 9.752381 24.380952 0 34.133334-34.133333 29.257143-63.390476 92.647619-92.647619 180.419047l97.52381-34.133333 53.638095 117.028571c4.87619 14.628571 0 24.380952-14.628571 34.133334-14.628571 4.87619-24.380952 0-34.133334-14.628572l-34.133333-78.019047-87.771429 29.257142h-4.87619c-4.87619 24.380952-9.752381 43.885714-14.628572 68.266667l97.52381-29.257143 34.133333 87.771429c4.87619 14.628571 0 24.380952-14.628571 34.133333-14.628571 4.87619-24.380952 0-34.133333-14.628571l-19.504762-48.761905-131.657143 39.009524 9.752381-39.009524c43.885714-195.047619 97.52381-316.952381 151.161905-370.590476 4.87619 0 9.752381-4.87619 19.504761-4.876191z"  horiz-adv-x="1072" />

    
    <glyph glyph-name="gerenshouye" unicode="&#58888;" d="M1043.504762 696.07619C1038.628571 832.609524 916.72381 866.742857 872.838095 866.742857H214.552381C107.27619 866.742857 43.885714 808.228571 24.380952 696.07619V18.285714c29.257143-87.771429 97.52381-131.657143 195.047619-136.533333h19.504762c107.27619 0 151.161905 53.638095 165.790477 102.4 29.257143 170.666667 29.257143 209.67619 29.257142 219.428571v19.504762l-19.504762 4.876191c-136.533333 19.504762-199.92381 107.27619-204.8 258.438095l19.504762-43.885714c34.133333-73.142857 73.142857-107.27619 117.028572-117.028572h19.504762c39.009524 0 73.142857 19.504762 102.4 63.390476l19.504762 24.380953 53.638095-68.266667 53.638095 68.266667 19.504762-24.380953c29.257143-39.009524 68.266667-63.390476 102.4-63.390476h19.504762c43.885714 9.752381 82.895238 48.761905 117.028571 117.028572l24.380953 43.885714c-14.628571-151.161905-78.019048-234.057143-204.8-258.438095l-24.380953-4.876191 48.761905-243.809524c19.504762-58.514286 73.142857-87.771429 146.285714-92.647619 73.142857-4.87619 136.533333 34.133333 190.171429 112.152381l4.87619 4.876191v9.752381c9.752381 375.466667 9.752381 609.52381 4.876191 682.666666zM355.961905 369.371429c-19.504762 4.87619-34.133333 19.504762-53.638095 43.885714l102.4-29.257143c-24.380952-19.504762-43.885714-14.628571-48.761905-14.628571zM204.8 491.27619v39.009524l214.552381-43.885714 58.514286-68.266667-273.066667 73.142857zM731.428571 369.371429c-9.752381 0-24.380952-4.87619-48.761904 14.628571l102.4 29.257143c-14.628571-24.380952-34.133333-39.009524-53.638096-43.885714z m-126.780952 43.885714l53.638095 73.142857c107.27619 24.380952 180.419048 39.009524 229.180953 53.638095 0-14.628571 0-34.133333-4.876191-48.761905l-277.942857-78.019047z m390.095238-394.971429c-43.885714-58.514286-87.771429-87.771429-141.409524-82.895238-53.638095 4.87619-87.771429 24.380952-102.4 58.514286l-39.009523 195.047619c156.038095 39.009524 229.180952 165.790476 224.304761 380.342857v29.257143l-29.257142-4.876191c-39.009524-9.752381-126.780952-29.257143-268.190477-58.514285h-9.752381l-87.771428-112.152381-92.647619 107.27619-287.695238 58.514286v-29.257143c-19.504762-214.552381 58.514286-341.333333 224.304762-375.466667-4.87619-24.380952-9.752381-78.019048-29.257143-185.295238-4.87619-19.504762-24.380952-68.266667-131.657143-63.390476-73.142857 4.87619-121.904762 39.009524-146.285714 102.4V696.07619c14.628571 87.771429 58.514286 126.780952 141.409523 126.780953h653.409524s121.904762-9.752381 121.904762-126.780953c4.87619-73.142857 4.87619-302.32381 0-677.790476z"  horiz-adv-x="1072" />

    
    <glyph glyph-name="daizhifu" unicode="&#58889;" d="M508.8 118.4c-19.2-3.2-38.4-3.2-60.8-3.2-121.6 0-198.4 25.6-224 80-35.2 67.2 6.4 182.4 118.4 342.4-3.2 0-6.4 3.2-12.8 3.2l9.6 32h6.4C297.6 640 294.4 668.8 297.6 678.4c0 3.2 3.2 6.4 9.6 9.6 9.6 3.2 12.8 0 25.6-16 9.6-9.6 19.2-25.6 38.4-25.6 16 0 28.8 9.6 41.6 19.2 9.6 9.6 22.4 16 32 16 9.6 0 19.2-6.4 28.8-16 12.8-9.6 25.6-19.2 44.8-19.2 19.2 0 28.8 12.8 38.4 22.4 12.8 12.8 19.2 19.2 32 16 12.8-3.2 12.8-9.6 16-9.6 3.2-9.6 3.2-35.2-44.8-105.6h3.2l12.8-28.8c-3.2-3.2-9.6-3.2-12.8-3.2 32-51.2 54.4-89.6 70.4-118.4h35.2c-16 32-41.6 76.8-83.2 137.6 41.6 60.8 54.4 102.4 44.8 131.2-3.2 9.6-12.8 25.6-38.4 28.8-35.2 9.6-51.2-12.8-64-25.6-6.4-6.4-9.6-12.8-12.8-12.8-6.4 0-16 6.4-25.6 12.8-9.6 12.8-25.6 25.6-44.8 25.6-22.4 0-38.4-12.8-51.2-22.4-9.6-6.4-16-12.8-22.4-12.8-3.2 0-9.6 6.4-16 12.8-9.6 12.8-28.8 35.2-67.2 19.2-12.8-6.4-22.4-16-28.8-32-6.4-28.8 9.6-70.4 51.2-128-121.6-169.6-160-294.4-118.4-374.4 32-64 118.4-96 252.8-96 35.2 0 64 3.2 92.8 6.4-9.6 6.4-22.4 16-28.8 28.8zM432 534.4c3.2 6.4 12.8 9.6 22.4 6.4 6.4-3.2 9.6-12.8 6.4-22.4 38.4 0 73.6 6.4 105.6 19.2-3.2 3.2-3.2 6.4-6.4 9.6-3.2 6.4-3.2 12.8 0 19.2l3.2 3.2c-64-25.6-137.6-25.6-220.8 0l3.2-3.2c3.2-6.4 3.2-12.8 0-19.2-3.2-3.2-3.2-6.4-6.4-9.6 28.8-9.6 60.8-16 86.4-16 3.2 3.2 6.4 6.4 6.4 12.8zM560 547.2c3.2-3.2 3.2-6.4 6.4-9.6 3.2 0 9.6 3.2 12.8 3.2l-12.8 28.8h-3.2l-3.2-3.2c-3.2-6.4-3.2-12.8 0-19.2zM345.6 566.4l-3.2 3.2h-6.4l-9.6-32c3.2 0 6.4-3.2 12.8-3.2 3.2 3.2 3.2 6.4 6.4 9.6 3.2 6.4 3.2 16 0 22.4zM425.6 518.4c-19.2-38.4-22.4-64-12.8-83.2 3.2-6.4 12.8-16 35.2-16 22.4 0 35.2 6.4 44.8 19.2 6.4 12.8 6.4 28.8-3.2 48-3.2 6.4-12.8 12.8-22.4 6.4-6.4-3.2-12.8-12.8-6.4-22.4 6.4-12.8 3.2-19.2 3.2-19.2s-3.2-3.2-16-3.2h-6.4s-6.4 12.8 22.4 64c-12.8 6.4-25.6 6.4-38.4 6.4zM454.4 540.8c-6.4 3.2-16 0-22.4-6.4-3.2-6.4-3.2-9.6-6.4-12.8 12.8 0 22.4-3.2 35.2-3.2 6.4 6.4 3.2 16-6.4 22.4zM675.2 416c0-3.2 3.2-6.4 3.2-9.6l-28.8-12.8c-3.2 6.4-6.4 12.8-12.8 22.4-96-6.4-169.6-86.4-169.6-182.4 0-44.8 16-83.2 41.6-115.2 9.6 0 22.4 3.2 32 3.2l6.4-32h-6.4c32-25.6 70.4-38.4 112-38.4 102.4 0 185.6 83.2 185.6 185.6-3.2 89.6-73.6 166.4-163.2 179.2z m-25.6-336c-83.2 0-153.6 67.2-153.6 153.6 0 83.2 67.2 153.6 153.6 153.6 83.2 0 153.6-67.2 153.6-153.6 0-83.2-67.2-153.6-153.6-153.6zM537.6 121.6c-9.6 0-19.2-3.2-32-3.2l28.8-28.8h6.4l-3.2 32zM636.8 416c3.2-9.6 9.6-16 12.8-22.4l28.8 12.8c0 3.2-3.2 6.4-3.2 9.6h-38.4zM864 880H160C80 880 16 816 16 736v-704c0-80 64-144 144-144h704c80 0 144 64 144 144V736c0 80-64 144-144 144zM976 32c0-60.8-51.2-112-112-112H160c-60.8 0-112 51.2-112 112V736c0 60.8 51.2 112 112 112h704c60.8 0 112-51.2 112-112v-704z"  horiz-adv-x="1024" />

    
    <glyph glyph-name="daifahuo" unicode="&#58890;" d="M844.8 371.2h-19.2l-54.4-233.6h-86.4l-3.2-19.2c0-6.4-9.6-12.8-16-12.8h118.4c6.4 0 12.8 6.4 16 12.8l60.8 265.6c0-3.2 0-3.2-3.2-6.4-3.2-6.4-6.4-6.4-12.8-6.4zM320 403.2h368H320zM652.8 121.6l3.2 12.8h-291.2l3.2-12.8c3.2-9.6-3.2-16-12.8-19.2H352h313.6c-9.6 3.2-16 9.6-12.8 19.2zM214.4 403.2h-3.2H288zM176 384v3.2-3.2zM332.8 115.2l-3.2 19.2h-64l-51.2 233.6H192c-6.4 0-9.6 3.2-12.8 6.4 0 3.2-3.2 3.2-3.2 6.4l60.8-265.6c3.2-6.4 9.6-12.8 16-12.8H352c-9.6 0-16 6.4-19.2 12.8zM860.8 390.4v0zM723.2 403.2h99.2-99.2zM860.8 387.2v0zM176 384zM281.6 371.2H211.2h70.4zM825.6 371.2h-96zM192 403.2h22.4c12.8 48 22.4 83.2 28.8 105.6 6.4 22.4 16 54.4 28.8 92.8l57.6 9.6 3.2 19.2c3.2 9.6 12.8 12.8 19.2 12.8 9.6-3.2 12.8-9.6 12.8-19.2l-3.2-9.6c64 6.4 115.2 9.6 153.6 9.6 32 0 76.8-3.2 128-6.4v6.4c-3.2 9.6 3.2 16 12.8 19.2 9.6 0 16-3.2 19.2-12.8l3.2-16c25.6-3.2 51.2-6.4 80-9.6l64-201.6h22.4c6.4 0 9.6-3.2 12.8-6.4 0-3.2 3.2-3.2 3.2-6.4l-76.8 230.4c-3.2 6.4-6.4 9.6-12.8 9.6-108.8 16-195.2 22.4-252.8 22.4-57.6 0-147.2-6.4-262.4-22.4-6.4 0-9.6-6.4-12.8-9.6-16-44.8-25.6-76.8-32-105.6-6.4-25.6-19.2-67.2-35.2-128 0 3.2 0 3.2 3.2 6.4 3.2 6.4 6.4 9.6 12.8 9.6zM192 371.2h86.4l6.4 32H192c-6.4 0-9.6-3.2-12.8-6.4 0-3.2-3.2-3.2-3.2-6.4v-6.4c0-3.2 0-3.2 3.2-6.4 3.2-6.4 6.4-6.4 12.8-6.4zM313.6 371.2h115.2v16h32v-16H576v16h32v-16h89.6l-9.6 32H320zM860.8 390.4c0 3.2 0 3.2-3.2 6.4s-6.4 6.4-12.8 6.4H720l6.4-32h115.2c6.4 0 9.6 3.2 12.8 6.4 0 3.2 3.2 3.2 3.2 6.4v3.2c3.2 0 3.2 3.2 3.2 3.2zM320 403.2l44.8 211.2c-9.6 0-22.4-3.2-32-3.2L288 403.2h32zM313.6 371.2h-32v-3.2l48-233.6h32l-48 233.6zM320 403.2H288h32zM364.8 121.6l-3.2 12.8h-32l3.2-19.2c0-6.4 9.6-12.8 16-12.8h3.2c9.6 3.2 16 12.8 12.8 19.2zM364.8 624c3.2 9.6-3.2 16-12.8 19.2-9.6 3.2-16-3.2-19.2-12.8l-3.2-19.2c12.8 0 22.4 3.2 32 3.2l3.2 9.6zM313.6 371.2h-32zM320 403.2H288l-6.4-32h32zM729.6 371.2h-32v-3.2l-44.8-233.6h32l44.8 233.6zM723.2 403.2l-44.8 211.2c-12.8 0-22.4 3.2-32 3.2l44.8-214.4h32zM688 403.2h35.2zM681.6 115.2l3.2 19.2h-32l-3.2-12.8c0-9.6 3.2-16 12.8-19.2h3.2c9.6 0 16 6.4 16 12.8zM697.6 371.2h32-32zM675.2 630.4c-3.2 9.6-9.6 12.8-19.2 12.8-9.6-3.2-12.8-9.6-12.8-19.2v-6.4c9.6 0 22.4-3.2 32-3.2v16zM697.6 371.2h32l-6.4 32h-35.2zM576 323.2h-115.2v48h-32v-80H608v80h-32zM576 387.2h32v-16h-32zM428.8 387.2h32v-16h-32zM864 880H160C80 880 16 816 16 736v-704c0-80 64-144 144-144h704c80 0 144 64 144 144V736c0 80-64 144-144 144zM976 32c0-60.8-51.2-112-112-112H160c-60.8 0-112 51.2-112 112V736c0 60.8 51.2 112 112 112h704c60.8 0 112-51.2 112-112v-704z"  horiz-adv-x="1024" />

    
    <glyph glyph-name="daishouhuo" unicode="&#58891;" d="M774.4 528c-28.8 22.4-57.6 28.8-80 19.2-35.2-16-51.2-19.2-57.6-19.2 0-6.4-3.2-12.8-9.6-16-6.4-3.2-16-3.2-19.2 0-6.4-6.4-12.8-6.4-19.2-3.2-3.2 3.2-6.4 3.2-9.6 3.2-6.4-9.6-16-19.2-22.4-32-16-28.8-38.4-51.2-70.4-67.2l-6.4-3.2v-6.4c-6.4-38.4 0-67.2 19.2-86.4 16-16 41.6-22.4 73.6-22.4 19.2 0 41.6 3.2 70.4 9.6-3.2 3.2-3.2 6.4-6.4 6.4-6.4 6.4-6.4 16 3.2 22.4 6.4 6.4 16 6.4 22.4-3.2 3.2-3.2 3.2-6.4 6.4-9.6 6.4 6.4 19.2 9.6 35.2 6.4h6.4l6.4 3.2c12.8 6.4 25.6 16 38.4 28.8 3.2-6.4 6.4-12.8 6.4-22.4 3.2-9.6 6.4-16 16-19.2h6.4c44.8 12.8 57.6 38.4 64 60.8 3.2 54.4-35.2 118.4-73.6 150.4z m35.2-140.8c-3.2-12.8-12.8-25.6-25.6-32-19.2 57.6-57.6 83.2-115.2 70.4-67.2-12.8-112-32-137.6-60.8-6.4-6.4-6.4-16 3.2-22.4 6.4-6.4 16-6.4 22.4 3.2 19.2 22.4 60.8 41.6 118.4 51.2 25.6 3.2 41.6 0 54.4-9.6-9.6-9.6-19.2-19.2-28.8-25.6-41.6 6.4-64-16-70.4-25.6-54.4-12.8-92.8-9.6-108.8 6.4-9.6 9.6-12.8 28.8-9.6 51.2 32 19.2 57.6 44.8 73.6 76.8 12.8 22.4 22.4 35.2 32 35.2 16-12.8 44.8-6.4 92.8 12.8 9.6 3.2 28.8 0 44.8-16 28.8-25.6 60.8-76.8 54.4-115.2zM265.6 371.2c9.6 0 16-9.6 12.8-16 0-6.4-3.2-12.8-3.2-19.2 12.8 6.4 32 16 48 22.4 9.6 3.2 16 6.4 22.4 9.6l9.6-38.4c0-6.4 6.4-9.6 9.6-12.8h6.4c3.2 0 6.4 0 9.6 3.2 19.2 16 41.6 41.6 70.4 80 3.2 6.4 3.2 16-3.2 22.4-73.6 67.2-48 102.4-41.6 112 25.6 41.6 83.2 35.2 172.8-16 16 16 32 22.4 48 19.2h6.4l3.2-3.2h3.2c3.2 16-6.4 38.4-16 57.6-22.4 41.6-57.6 48-89.6 54.4-9.6 3.2-19.2 3.2-28.8 6.4-22.4 6.4-35.2 22.4-44.8 35.2-6.4 6.4-12.8 12.8-19.2 12.8-3.2 0-9.6-3.2-12.8-6.4-9.6 0-12.8-3.2-12.8-6.4-6.4-16-3.2-35.2 6.4-57.6-12.8 3.2-25.6 3.2-41.6 6.4-28.8 3.2-54.4 19.2-73.6 44.8-3.2 3.2-9.6 9.6-22.4 6.4-3.2-3.2-9.6-6.4-9.6-12.8-9.6-41.6 6.4-73.6 22.4-92.8-44.8-32-73.6-73.6-80-121.6-6.4-38.4 6.4-76.8 28.8-108.8v6.4c0 6.4 9.6 12.8 19.2 12.8z m220.8 249.6c9.6-3.2 22.4-6.4 32-9.6 28.8-6.4 54.4-12.8 70.4-38.4 12.8-22.4 12.8-32 12.8-35.2l-3.2 3.2C544 576 496 592 457.6 592c3.2 0 6.4 3.2 6.4 6.4 3.2 6.4 3.2 12.8 0 19.2-6.4 9.6-9.6 16-12.8 22.4 9.6-6.4 22.4-12.8 35.2-19.2z m-236.8-163.2c3.2 28.8 22.4 73.6 83.2 108.8 6.4 3.2 6.4 9.6 6.4 12.8 0 6.4-3.2 9.6-9.6 12.8 0 0-22.4 12.8-28.8 41.6 19.2-16 41.6-25.6 70.4-28.8 32-3.2 57.6-6.4 73.6-12.8-32-3.2-54.4-16-70.4-41.6-28.8-44.8-16-92.8 38.4-144-12.8-16-25.6-32-35.2-44.8-3.2 16-6.4 28.8-6.4 28.8-3.2 6.4-9.6 12.8-16 12.8H352c-3.2 0-3.2 0-44.8-19.2l-38.4-19.2c-16 28.8-22.4 60.8-19.2 92.8zM630.4 534.4h-6.4c-16 3.2-32-3.2-48-19.2 3.2-3.2 6.4-3.2 9.6-3.2 6.4-3.2 16-3.2 19.2 3.2 6.4-6.4 12.8-6.4 19.2 0 6.4 3.2 9.6 9.6 9.6 16h-3.2v3.2zM412.8 528l3.2-9.6c9.6-54.4 38.4-64 60.8-64 41.6 0 60.8 32 60.8 54.4v9.6l-6.4 3.2c-48 35.2-86.4 25.6-108.8 12.8l-9.6-6.4z m92.8-28.8c-3.2-6.4-9.6-16-28.8-16-6.4 0-19.2 0-25.6 25.6 16 6.4 35.2 3.2 54.4-9.6zM649.6 310.4l-6.4-6.4-6.4-3.2c41.6-54.4 41.6-131.2 32-182.4-6.4 6.4-12.8 12.8-19.2 16-6.4 3.2-16 9.6-25.6 0-3.2-3.2-6.4-9.6-6.4-16 3.2-9.6 0-19.2 0-25.6-16 25.6-51.2 38.4-60.8 41.6-12.8 3.2-19.2 0-25.6-6.4 0-3.2-3.2-3.2-3.2-6.4-3.2-9.6-3.2-16-3.2-22.4-64 19.2-108.8 48-131.2 89.6-3.2 3.2-6.4 9.6-16 12.8-3.2 0-6.4 0-9.6-3.2-9.6-6.4-16-12.8-19.2-22.4-22.4 28.8-25.6 67.2-25.6 80 0 6.4 0 12.8-6.4 16-3.2 3.2-6.4 3.2-12.8 3.2h-6.4c-28.8-12.8-48-16-67.2-9.6 22.4 16 38.4 38.4 44.8 64-6.4-3.2-12.8 0-19.2 3.2-3.2 3.2-6.4 9.6-9.6 12.8-6.4-28.8-25.6-51.2-60.8-70.4-6.4-3.2-9.6-9.6-9.6-16s3.2-12.8 9.6-12.8c32-12.8 64-22.4 105.6-6.4 6.4-48 22.4-83.2 54.4-102.4 6.4-3.2 12.8-3.2 19.2 0s6.4 9.6 6.4 16V160c32-48 92.8-80 172.8-96 6.4 0 9.6 0 12.8 3.2 3.2 3.2 6.4 9.6 6.4 12.8 0 6.4-6.4 9.6-6.4 12.8 0 0-3.2 3.2-3.2 6.4 16-6.4 38.4-22.4 38.4-35.2 0-3.2 0-6.4 3.2-6.4 3.2-6.4 12.8-9.6 19.2-9.6 9.6 3.2 25.6 16 32 41.6 3.2-6.4 9.6-12.8 6.4-22.4 0-9.6 3.2-16 9.6-19.2h3.2c6.4 0 12.8 3.2 16 9.6 16 38.4 44.8 169.6-22.4 259.2-3.2 3.2-6.4-3.2-9.6-6.4zM633.6 332.8c-6.4-6.4-6.4-16-3.2-22.4 3.2-3.2 3.2-6.4 6.4-6.4l6.4 3.2c3.2 0 3.2 3.2 6.4 6.4s6.4 9.6 12.8 12.8c-3.2 3.2-3.2 6.4-6.4 9.6-6.4 3.2-16 3.2-22.4-3.2zM275.2 332.8c3.2 6.4 3.2 12.8 3.2 19.2 0 9.6-6.4 16-12.8 16-9.6 0-16-6.4-16-12.8v-6.4c3.2-3.2 6.4-9.6 9.6-12.8 0-3.2 9.6-6.4 16-3.2zM864 880H160C80 880 16 816 16 736v-704c0-80 64-144 144-144h704c80 0 144 64 144 144V736c0 80-64 144-144 144zM976 32c0-60.8-51.2-112-112-112H160c-60.8 0-112 51.2-112 112V736c0 60.8 51.2 112 112 112h704c60.8 0 112-51.2 112-112v-704z"  horiz-adv-x="1024" />

    
    <glyph glyph-name="yiwancheng" unicode="&#58892;" d="M617.6 96l3.2 12.8h-243.2l3.2-12.8c3.2-9.6-3.2-16-12.8-19.2h-3.2 265.6c-9.6 0-16 9.6-12.8 19.2zM332.8 323.2h76.8v16h32v-16h105.6v16h32v-16h76.8v3.2c0 3.2 3.2 6.4 3.2 6.4h-3.2c-3.2 6.4-6.4 16-9.6 22.4h-310.4l-9.6-19.2 6.4-12.8zM348.8 89.6l-3.2 19.2H259.2l-48 214.4h89.6l-3.2 12.8v9.6c0 3.2 3.2 6.4 6.4 9.6H262.4l3.2-9.6-28.8-9.6-6.4 22.4H192c-6.4 0-9.6-3.2-12.8-6.4-3.2-3.2-3.2-9.6-3.2-12.8l54.4-246.4c3.2-6.4 9.6-12.8 16-12.8h118.4c-6.4-3.2-12.8 3.2-16 9.6zM723.2 345.6l3.2 9.6h-41.6c0-3.2 3.2-6.4 6.4-9.6l-12.8-6.4h3.2c6.4 0 12.8-9.6 12.8-16h86.4l-48-214.4h-76.8l-3.2-19.2c0-6.4-9.6-12.8-16-12.8h108.8c6.4 0 12.8 6.4 16 12.8l57.6 246.4c0 3.2 0 9.6-3.2 12.8-3.2 3.2-6.4 6.4-12.8 6.4h-38.4l-9.6-22.4-32 12.8zM812.8 505.6l-70.4 150.4c-3.2 6.4-6.4 9.6-12.8 9.6-25.6 3.2-51.2 6.4-73.6 9.6l9.6-32c16-3.2 32-3.2 51.2-6.4l54.4-118.4h-73.6l3.2-16-32-9.6-6.4 25.6h-352l-6.4-19.2-32 9.6 3.2 12.8H217.6L268.8 640c16-3.2 32 0 48 3.2l6.4 19.2 32-9.6-3.2-6.4c60.8 6.4 108.8 9.6 144 9.6s80-3.2 134.4-9.6l-6.4 22.4 32 9.6c-67.2 6.4-118.4 12.8-160 12.8-54.4 0-137.6-6.4-243.2-22.4-6.4 0-9.6-3.2-12.8-9.6l-64-150.4v-12.8l28.8 9.6 6.4-22.4h560l9.6 22.4 28.8-12.8c6.4 6.4 6.4 9.6 3.2 12.8zM300.8 323.2l44.8-214.4h32l-44.8 214.4zM329.6 339.2s0-3.2-3.2-3.2l-28.8 12.8c0-3.2-3.2-6.4 0-9.6l3.2-12.8h32l-3.2 12.8zM380.8 96l-3.2 12.8h-32l3.2-19.2c0-6.4 9.6-12.8 16-12.8h3.2c9.6 3.2 16 9.6 12.8 19.2zM620.8 108.8h32l38.4 214.4v3.2h-32l-38.4-217.6zM649.6 89.6l3.2 19.2h-32l-3.2-12.8c0-9.6 3.2-16 12.8-19.2h3.2c6.4 0 12.8 6.4 16 12.8zM659.2 326.4v-3.2h32c0 6.4-6.4 16-12.8 16h-3.2l-12.8-6.4s-3.2-3.2-3.2-6.4zM550.4 281.6h-105.6v41.6h-32v-73.6h169.6v73.6h-32zM412.8 339.2h32v-16h-32zM550.4 339.2h32v-16h-32zM316.8 643.2l-38.4-124.8h32l41.6 128c-12.8 0-22.4-3.2-35.2-3.2zM355.2 652.8l-32 9.6-6.4-19.2c12.8 0 22.4 3.2 35.2 3.2l3.2 6.4zM275.2 505.6l28.8-9.6 6.4 19.2h-32zM665.6 515.2h32l-35.2 128c-12.8 0-22.4 3.2-35.2 3.2l38.4-131.2zM656 675.2zM672 492.8l32 6.4-6.4 16h-32zM630.4 646.4c9.6 0 22.4-3.2 35.2-3.2l-9.6 32-32-9.6 6.4-19.2zM214.4 483.2H192c-6.4 0-9.6 3.2-12.8 6.4v3.2l51.2-137.6h35.2l-51.2 128zM265.6 345.6l-3.2 9.6H227.2l9.6-19.2zM192 483.2h22.4l-6.4 22.4-28.8-9.6v-3.2c3.2-6.4 6.4-9.6 12.8-9.6zM800 483.2h-22.4l-48-128h35.2l54.4 137.6v-3.2c-9.6-3.2-16-6.4-19.2-6.4zM723.2 345.6l28.8-12.8 9.6 22.4h-35.2zM774.4 483.2h25.6c6.4 0 9.6 3.2 12.8 6.4v3.2l-28.8 12.8-9.6-22.4zM496 473.6c-92.8 0-156.8-38.4-192-118.4h35.2c32 57.6 83.2 86.4 156.8 86.4 73.6 0 124.8-28.8 153.6-86.4h35.2c-35.2 80-99.2 118.4-188.8 118.4zM659.2 332.8h3.2c3.2 3.2 6.4 6.4 12.8 6.4l12.8 6.4c0 3.2-3.2 6.4-6.4 9.6h-35.2c6.4-6.4 9.6-12.8 12.8-22.4zM310.4 355.2c9.6 3.2 16-3.2 19.2-12.8v-6.4l9.6 19.2H304c0-3.2-3.2-6.4-6.4-9.6 3.2 6.4 6.4 9.6 12.8 9.6zM329.6 339.2v6.4c-3.2 9.6-9.6 12.8-19.2 12.8-6.4 0-9.6-6.4-12.8-9.6l28.8-12.8c3.2 0 3.2 0 3.2 3.2zM665.6 336l12.8 6.4c-6.4-3.2-9.6-3.2-12.8-6.4zM96 432c-9.6 0-16-6.4-16-16s6.4-16 16-16h16v32H96zM156.8 432h-12.8v-32H160c9.6 0 16 6.4 16 16s-9.6 16-19.2 16zM144 448c0 9.6-6.4 16-16 16s-16-6.4-16-16v-16h32V448zM112 387.2c0-9.6 6.4-16 16-16s16 6.4 16 16v16h-32v-16zM112 432h32v-32h-32zM924.8 528h-16v-32h16c9.6 0 16 6.4 16 16s-6.4 16-16 16zM864 528c-9.6 0-16-6.4-16-16s6.4-16 16-16h16v32H864zM880 483.2c0-9.6 6.4-16 16-16s16 6.4 16 16v16h-32v-16zM912 544c0 9.6-6.4 16-16 16s-16-6.4-16-16v-16h32V544zM880 528h32v-32h-32zM864 880H160C80 880 16 816 16 736v-704c0-80 64-144 144-144h704c80 0 144 64 144 144V736c0 80-64 144-144 144zM976 32c0-60.8-51.2-112-112-112H160c-60.8 0-112 51.2-112 112V736c0 60.8 51.2 112 112 112h704c60.8 0 112-51.2 112-112v-704z"  horiz-adv-x="1024" />

    
    <glyph glyph-name="shouji" unicode="&#58893;" d="M791.893333 814.08c-61.44 34.133333-150.186667 109.226667-204.8-34.133333-61.44-136.533333-13.653333-157.013333 54.613334-191.146667 47.786667-27.306667-6.826667-136.533333-61.44-238.933333-54.613333-95.573333-129.706667-197.973333-170.666667-170.666667-68.266667 34.133333-109.226667 75.093333-204.8-47.786667-88.746667-122.88 13.653333-157.013333 75.093333-197.973333 75.093333-40.96 273.066667 68.266667 430.08 334.506667s157.013333 498.346667 81.92 546.133333z"  horiz-adv-x="1024" />

    
    <glyph glyph-name="zaixiankefu" unicode="&#58894;" d="M943.542857 896H190.171429C95.085714 896 14.628571 815.542857 14.628571 713.142857V310.857143c0-102.4 80.457143-182.857143 175.542858-182.857143h241.371428V-54.857143c0-29.257143 14.628571-58.514286 43.885714-65.828571 7.314286-7.314286 14.628571-7.314286 21.942858-7.314286 21.942857 0 36.571429 7.314286 51.2 21.942857l197.485714 234.057143h197.485714c95.085714 0 175.542857 80.457143 175.542857 182.857143V713.142857C1111.771429 815.542857 1038.628571 896 943.542857 896z m102.4-585.142857c0-58.514286-43.885714-109.714286-102.4-109.714286h-219.428571c-7.314286 0-21.942857-7.314286-29.257143-14.628571L497.371429-54.857143v219.428572c0 7.314286 0 21.942857-7.314286 29.257142-7.314286 7.314286-21.942857 7.314286-29.257143 7.314286H190.171429c-58.514286 0-102.4 51.2-102.4 109.714286V713.142857c0 58.514286 43.885714 109.714286 102.4 109.714286h753.371428c58.514286 0 102.4-51.2 102.4-109.714286V310.857143zM746.057143 522.971429a80.457143 73.142857 90 1 1 146.285714 0 80.457143 73.142857 90 1 1-146.285714 0ZM526.628571 522.971429a80.457143 73.142857 90 1 1 146.285715 0 80.457143 73.142857 90 1 1-146.285715 0ZM307.2 522.971429a80.457143 73.142857 90 1 1 146.285714 0 80.457143 73.142857 90 1 1-146.285714 0Z"  horiz-adv-x="1170" />

    
    <glyph glyph-name="coupons-style" unicode="&#59456;" d="M0 819.6v-281.9c33.9-0.1 65.2-11.7 90-31.2 34.4-26.9 56.6-68.8 56.6-115.8s-22.2-88.9-56.6-115.8c-24.9-19.4-56.1-31.1-90-31.2v-281.9h1024V243.7c-33.9 0-65.1 11.6-90 31-34.6 26.9-56.8 68.9-56.8 116 0 47.1 22.3 89.1 56.8 116 24.9 19.4 56.1 30.9 90 31V819.6H0z m934-209.6c-28.6-11.8-54.9-29.2-77.4-51.7C811.8 513.5 787.2 454 787.2 390.7s24.7-122.8 69.4-167.6c22.5-22.5 48.8-40 77.4-51.7v-119.6h-844V171.5c28.5 11.8 54.7 29.2 77.2 51.6 44.8 44.8 69.4 104.3 69.4 167.6S211.9 513.5 167.2 558.3c-22.5 22.5-48.7 39.9-77.2 51.6V729.6h844V610zM466.9 136.4h90V255.7h116.1v90H556.9v64.9h116.1v90h-57.4l57.4 99.4-78 45-83-143.7-83 143.7-78-45 57.4-99.4h-57.4v-90h115.9v-64.9H351v-90h115.9z"  horiz-adv-x="1025" />

    
    <glyph glyph-name="refund" unicode="&#59457;" d="M855.549351 285.978717H675.402128V391.847701L482.058772 233.394123l193.343356-160.05311V196.005077h180.147223c43.087377 0 78.177097-35.08972 78.177096-78.177097V-128h89.973641V117.82798c0 92.67285-75.377917 168.150737-168.150737 168.150737zM862.747242 896H164.651762L0.999707 612.183149v-739.883237h489.856487v89.973641H91.173289V549.901396l843.352924 4.698624v-173.349215h90.173582V611.983208L862.747242 896z m-645.710827-89.973641h593.026262l92.972762-161.65264-782.37079-4.398712 96.371766 166.051352z"  horiz-adv-x="1025" />

    
    <glyph glyph-name="credit" unicode="&#59458;" d="M164 433.1c93.7-44.5 217.3-69.1 348-69.1s254.3 24.5 348 69.1c104.4 49.6 161.8 119.5 161.8 196.9S964.3 777.3 860 826.9C766.3 871.5 642.7 896 512 896S257.7 871.5 164 826.9C59.7 777.3 2.2 707.4 2.2 630S59.7 482.7 164 433.1z m-46.7 253c19.1 21.5 48.6 42.1 85.3 59.5 39.4 18.7 85.6 33.5 137.3 43.9C394.3 800.4 452.2 806 512 806s117.7-5.5 172.1-16.5c51.7-10.4 97.9-25.2 137.3-43.9 36.7-17.4 66.2-38 85.3-59.5 16.7-18.8 25.1-37.6 25.1-56.1s-8.5-37.3-25.1-56.1c-19.1-21.5-48.6-42.1-85.3-59.5-39.4-18.7-85.6-33.5-137.3-43.9C629.7 459.6 571.8 454 512 454s-117.7 5.5-172.1 16.5c-51.7 10.4-97.9 25.2-137.3 43.9-36.7 17.4-66.2 38-85.3 59.5-16.7 18.8-25.1 37.6-25.1 56.1s8.4 37.4 25.1 56.1zM904.7 316c-23.8-15.7-47.7-29.4-70.9-41.1-10.3-5.2-20.4-9.9-30.4-14.2-20.8-8.8-43.2-16.6-67.2-23.3-16.7-4.7-34.1-8.9-52.2-12.5-54.4-10.9-112.3-16.5-172.1-16.5s-117.7 5.5-172.1 16.5c-16 3.2-31.4 6.8-46.3 10.9-21.1 5.7-41 12.2-59.7 19.5-18.5 7.5-37.8 16.6-57.5 27.2-18.2 9.7-36.7 20.7-55.2 32.9C74.3 346.2 34.4 380 4.6 412.6 2.9 403.3 2 394 2 384.5 2.2 307 59.7 237 164 187.4c93.7-44.5 217.3-69.1 348-69.1s254.3 24.5 348 69.1C964.3 237 1021.8 307 1021.8 384.3c0 9.1-0.8 18-2.4 26.9-29.6-31.9-68.8-65-114.7-95.2zM904.7 69.6c-23.8-15.7-47.7-29.4-70.9-41.1-10.3-5.2-20.4-9.9-30.4-14.2-20.8-8.8-43.2-16.6-67.2-23.3-16.7-4.7-34.1-8.9-52.2-12.5-54.3-10.9-112.2-16.5-172-16.5s-117.7 5.5-172.1 16.5c-16 3.2-31.4 6.8-46.3 10.9-21.1 5.7-41 12.2-59.7 19.5-18.5 7.5-37.8 16.6-57.5 27.2-18.2 9.7-36.7 20.7-55.2 32.9-46.8 30.8-86.7 64.6-116.5 97.2-1.7-9.3-2.6-18.6-2.6-28.1 0-77.4 57.5-147.3 161.8-196.9 93.7-44.5 217.3-69.1 348-69.1s254.3 24.5 348 69.1c104.4 49.6 161.8 119.5 161.8 196.9 0 9.1-0.8 18-2.4 26.9-29.5-32.1-68.7-65.2-114.6-95.4z"  horiz-adv-x="1024" />

    
    <glyph glyph-name="subcsripti" unicode="&#59459;" d="M38.8 896v-1024h90l383.4 191.6 383-191.6h90V896H38.8z m856.4-923.3L511.9 164.4 128.8-29.9V805.9h766.5v-833.2zM467 246.7h90V430.5h183.7v90H557V704.2h-90v-183.7H283.3v-90H467z"  horiz-adv-x="1024" />

    
    <glyph glyph-name="order2" unicode="&#59461;" d="M738.5 799.7V896h-90.1v-96.3H384.3V896h-90.1v-96.3H91.1V-128h629.2L933 85.4V799.7H738.5z m-557.3-90.1h113v-92.2h90.1v92.2h264.1v-92.2h90.1v92.2h104.3v-532.2H629.1v-215.2H181.2V709.6z m538-711v88.6h88.3l-88.3-88.6zM277.3 177.3H513v-90.1H277.3zM277.3 357.2h475.4v-90.1H277.3zM277.3 537h396.8v-90.1H277.3z"  horiz-adv-x="1024" />

    
    <glyph glyph-name="location" unicode="&#59462;" d="M512.1 331.3c-96.9 0-175.7 78.8-175.7 175.7s78.8 175.7 175.7 175.7S687.8 603.9 687.8 507 609 331.3 512.1 331.3z m0 261.4c-47.3 0-85.7-38.5-85.7-85.7s38.5-85.7 85.7-85.7 85.7 38.5 85.7 85.7-38.4 85.7-85.7 85.7zM512-128c-13.7 0-26.8 5.8-36.1 15.8-2 2.2-5.6 6-10.2 10.7-32 33.3-117 121.8-193.5 231.4-98.9 141.8-149 268.7-149 377.2 0 52.5 10.3 103.4 30.6 151.4 19.6 46.3 47.6 87.9 83.3 123.6 35.7 35.7 77.3 63.7 123.6 83.3C408.6 885.7 459.5 896 512 896s103.4-10.3 151.4-30.6c46.3-19.6 87.9-47.6 123.6-83.3 35.7-35.7 63.7-77.3 83.3-123.6 20.3-48 30.6-98.9 30.6-151.4 0-108.5-50.1-235.4-149-377.2-76.5-109.7-161.5-198.1-193.5-231.4-4.6-4.8-8.2-8.5-10.2-10.7-9.4-10-22.5-15.8-36.2-15.8z m0 933.8c-79.8 0-154.8-31.1-211.2-87.5-56.4-56.4-87.5-131.4-87.5-211.2 0-47.7 13.1-102.1 38.8-161.6 22.1-51.1 53.8-106.3 94-164 60.7-87 127.6-160.6 165.8-200.9 38.2 40.4 105.2 114 165.8 200.9 40.2 57.7 71.9 112.8 94 164 25.8 59.5 38.8 113.9 38.8 161.6 0 79.8-31.1 154.8-87.5 211.2-56.2 56.4-131.2 87.5-211 87.5z"  horiz-adv-x="1024" />

    
    <glyph glyph-name="user" unicode="&#59463;" d="M932.4-127.9c0.4 7.2 0.5 14.4 0.5 21.6 0 56.8-11.1 112-33.1 163.8-21.2 50.1-51.6 95.1-90.2 133.8s-83.7 69-133.8 90.2c-51.9 21.9-107 33.1-163.8 33.1-56.8 0-112-11.1-163.8-33.1-50.1-21.2-95.1-51.6-133.8-90.2-38.7-38.7-69-83.7-90.2-133.8-21.9-51.9-33.1-107-33.1-163.8 0-7.1 0.2-14.2 0.5-21.2l-90.2-0.5c-0.3 7.2-0.4 14.5-0.4 21.7 0 69 13.5 135.9 40.2 198.9 25.7 60.9 62.6 115.5 109.5 162.4 46.9 46.9 101.6 83.8 162.4 109.5 7.7 3.3 15.4 6.3 23.2 9.2-10.4 7.9-20.4 16.7-29.8 26.1-54.9 54.9-85.1 127.9-85.1 205.5s30.2 150.6 85.1 205.5C361.4 865.8 434.4 896 512 896s150.6-30.2 205.5-85.1c54.9-54.9 85.1-127.9 85.1-205.5s-30.2-150.6-85.1-205.5c-9.4-9.4-19.4-18.1-29.8-26.1 7.8-2.9 15.5-5.9 23.2-9.2 60.9-25.7 115.5-62.6 162.4-109.5s83.8-101.6 109.5-162.4c26.7-63 40.2-130 40.2-198.9 0-7.2-0.1-14.4-0.4-21.6l-90.2-0.1zM512 805.9c-110.6 0-200.6-90-200.6-200.6s90-200.6 200.6-200.6 200.6 90 200.6 200.6S622.6 805.9 512 805.9z"  horiz-adv-x="1024" />

    
    <glyph glyph-name="home" unicode="&#59460;" d="M512.9 896L0 383.6l63.4-63.8 38.2 38.1V-128h327.9l0.9 384H596v-384h329.1V355.1l35.4-35.5 63.5 63.7L512.9 896z m322.4-933.9H685.8v384H340.6v-384H191.3V447.6l321.5 321.1 322.5-323.5v-483.1z"  horiz-adv-x="1024" />

    
    <glyph glyph-name="icon-test" unicode="&#58938;" d="M535.21 754.7v-303.13l93.88 112.91z m-46.42 0L394.9 564.48l93.89-112.92zM346.51 550l-224.95-32.7 338.36-100.56z m331 0L546.14 416.74l356.3 100.56z m158.64-98.78l-281-68.91 154-54.89z m-648.3 0l127-123.8 133.52 54.88zM530 323v-151.34l149.94-78.83z m-43.46 0L336.57 92.83l149.94 78.83z m-24.25 27.93l-155.21-77.47-33.16-193.34z m83.88 0l203.91-270.82-33.16 193.35zM512 896c282.77 0 512-229.23 512-512s-229.23-512-512-512S0 101.23 0 384 229.23 896 512 896z"  horiz-adv-x="1024" />

    
    <glyph glyph-name="icon-test1" unicode="&#58940;" d="M738.31 644.86H603.39L672 474.1h173.62z m-181.1 0H464.8l-68.6-170.78h229.64z m-138.6 0h-134.9L178.36 474.08H350z m254.51-213.48L569 96.28l201.88 253.45c0.91 1.77 64.71 81.62 64.71 81.62z m-324.25 0H188.16l116.18-146.81 0.05-0.05c3.23-3.63 151.19-191.06 151.19-191.06z m279.25 0H393.91l117.1-408zM512 896c282.77 0 512-229.23 512-512s-229.23-512-512-512S0 101.23 0 384 229.23 896 512 896z"  horiz-adv-x="1024" />

    
    <glyph glyph-name="icon-test2" unicode="&#58941;" d="M341.16 562.87H229.84L292 523.48h27.33z m453 0H683.37l25.47-39.39H732z m35.27-38l-66.94-51.73-16-28.27 19.43-34.53z m-634.86 0l64.09-115.51 19 35.36-16.16 28.39zM512 629.65L318.15 287.52h387.7z m-26.75 138.18L189.07 234.09l68.1 52.62 228.08 401.92z m53.5 0v-79.2l228.08-401.92 68.1-52.62z m197.08-532.37H288.17L225 195.39h574zM545.65 165.7h-67.3L512 106.31z m84.5 0h-42.1L538.3 78v-77.85z m-194.2 0h-42.1l91.85-165.53V78zM512 896c282.77 0 512-229.23 512-512s-229.23-512-512-512S0 101.23 0 384 229.23 896 512 896z"  horiz-adv-x="1024" />

    
    <glyph glyph-name="icon-test3" unicode="&#58942;" d="M830.87 647.3H193.13l70.22-43.62h497.3zM727.35 547h-430.7L512 174.58z m143.38 58.17l-75.64-57.27-253.37-437.52v-86.22z m-717.46 0l329-581v86.21L228.91 547.9zM512 896c282.77 0 512-229.23 512-512s-229.23-512-512-512S0 101.23 0 384 229.23 896 512 896z"  horiz-adv-x="1024" />

    
    <glyph glyph-name="icon-test4" unicode="&#58943;" d="M483.08 715.15L190.39 409h63.41l229.28 243.9z m46.49 1.85v-67.2L774.26 409h63.3zM505.2 608.56L293.82 383.68l211.25-224.74 226.67 226.67zM249.92 362.5h-63.48l296.63-310.3v62.26z m586.19 0h-61.73L529.56 117.69V51zM512 896c282.77 0 512-229.23 512-512s-229.23-512-512-512S0 101.23 0 384 229.23 896 512 896z"  horiz-adv-x="1024" />

    
    <glyph glyph-name="icon-test5" unicode="&#58944;" d="M455.52 363.67l56.48-87.8 56.48 87.8L512 451.46l-56.48-87.79zM656.13 327.85l1.83-56.41 49.39 31.76-1.83 56.42-49.39-31.77zM316.65 303.2l49.39-31.76 1.83 56.41-49.39 31.77-1.83-56.42zM512 896C229.23 896 0 666.77 0 384s229.23-512 512-512 512 229.23 512 512S794.77 896 512 896z m221.43-808.17l-433.91 0.72v62.86h433.91zM834 495a30.72 30.72 0 0 0-17.5 5.46l-0.43 0.3-81.37-313.52-439.82 0.76-90.47 310.58a30.83 30.83 0 1 0 5.56 3.76l-0.36-0.3 131-94.78L499 641.87c-16.74 3.59-26.14 17.28-26.14 35.09a37.12 37.12 0 1 0 74.24 0c0-18.27-9.43-32.7-26.73-35.78l-0.53-0.09L702 413.66l110.32 90.26A30.88 30.88 0 1 0 834 495z"  horiz-adv-x="1024" />

    
    <glyph glyph-name="credit1" unicode="&#58945;" d="M814.17 182.63C774.3 140.13 748.05 112 513.24 112s-256.93 23.63-300.93 70.63C152.63 246.38 64.06 434.12 63.57 493.37a39.7 39.7 0 0 0 13 2c25.69 0 63.81-18.24 108-39.31C262.31 418.87 368.81 368 512 368c132.94 0 242.06 48.12 329.81 86.87 47.25 20.82 91.94 40.5 116.75 40.5h1.94c1.55-58.62-86.02-248.37-146.33-312.74z m-522.24 311c1.38 18.75 9.13 37.06 22.88 54.31C344.68 585.31 425.18 656 515.74 656c95.26 0 177.94-69.25 199.06-104.5 11.13-18.57 17-37.5 17.5-56.38a31.11 31.11 0 0 1 4.53-15.23C670.88 454.1 595.77 432 512 432c-89.55 0-162.59 21.9-224.52 47.53a31.86 31.86 0 0 1 4.45 14.09z m717.68 47.13c-14.56 13.19-31.56 18.62-51.06 18.62-42.71 0-97.16-26.19-162.67-54.82-2 27.3-10.82 54.09-26.2 79.82C736.92 639.06 633.55 720 515.74 720c-114.56 0-211.68-83-250.93-132.12-20.28-25.35-32.37-52.93-35.95-82.05-59.36 28.12-107.86 53.54-152.3 53.54-20.5 0-40.25-5.43-59.68-18.62-66.37-45 79.75-328.24 148.75-401.87C222.12 78.51 257.5 48 513.25 48c245.49 0 291.11 30.5 347.62 90.87 68.99 73.63 208.13 348.01 148.74 401.88z"  horiz-adv-x="1024" />

    
    <glyph glyph-name="level" unicode="&#58946;" d="M9.00448 859.28a32 32 0 0 0 32.57 8.32l302.37-93.23a31.91 31.91 0 0 0 14.16-8.94l114.36-124.21-47.34-43.1L316.65448 716 83.43448 787.89l82.24-233.26 117.27-95-40.54-49.5-124.29 100.71a31.9 31.9 0 0 0-10 14.18L1.81448 826.56A31.79 31.79 0 0 0 9.00448 859.28z m931.58-71.36L707.35448 716 319.74448 295l94.4-100.29L858.30448 554.65zM221.32448 306.2l-45-43.35 193.6-204.08 45.71 42.57z m579.79-0.08L608.40448 99.81l45.65-41.07 193.5 205.63z m21.65-161.51l-50.93-54.1 135.34-126 50.94 54.09z m-622.3 0.82L65.00448 17.77l51.79-53.35 135.39 126.07z m555.32 204.38c22.9 24.27 64.79 25.68 89.19 2.9l46.5-43.25a62.53 62.53 0 0 0 2.91-88.72l-27.77-29.51L1005.00448 62.35a59.45 59.45 0 0 0 2.8-84.35l-56.68-60.17a60.17 60.17 0 0 0-84.78-2.74L728.00448 43.91l-27.79-29.54a63.37 63.37 0 0 0-89.2-2.9l-46.49 43.25a62.53 62.53 0 0 0-2.92 88.71zM982.43448 867.63a32.21 32.21 0 0 0 32.57-8.32 31.79 31.79 0 0 0 7.18-32.72L915.85448 525a31.82 31.82 0 0 0-10-14.17L458.11448 148l4.33-4.61a62.54 62.54 0 0 0-3-88.72L413.00448 11.44a63.36 63.36 0 0 0-89.16 2.93L296.00448 43.9 157.63448-85a60.29 60.29 0 0 0-84.81 2.8L16.20448-22a59.48 59.48 0 0 0 2.8 84.39l138.37 128.82-27.81 29.54a62.61 62.61 0 0 0 2.94 88.69l46.5 43.31c24.4 22.75 66.35 21.38 89.19-3l7.56-8L665.90448 765.49a32.22 32.22 0 0 0 14.16 8.91z"  horiz-adv-x="1024" />

    
    <glyph glyph-name="coupon_select" unicode="&#58948;" d="M783.76 576L454 246.29 240.24 460.07 204 423.87l250-250 366 365.95zM512 896c282.77 0 512-229.23 512-512s-229.23-512-512-512S0 101.23 0 384 229.23 896 512 896z"  horiz-adv-x="1024" />

    
    <glyph glyph-name="home1" unicode="&#58949;" d="M887.84011 809.4H137.00011l-50-60.84h262.07c0.53 0 1.07 0.05 1.61 0.05 0.55 0 1.08 0 1.62-0.05h319.44c0.53 0 1.07 0.05 1.61 0.05s1.08 0 1.61-0.05h262.4zM968.00011 692.53H701.39011v-135.94c1-67.94 49.5-126.07 113.69-135.32l2-0.27C897.70011 410.67 968.00011 473 968.00011 553.14z m-322.63 0H378.72011v-136.18c1.15-67.83 49.58-125.84 113.69-135.08l2-0.27c80.66-10.34 151 52 151 132.14V692.53z m-322.67 0H56.00011v-133.72c0-68.88 48.83-128.18 113.71-137.54l2-0.27c80.66-10.34 151 52 151 132.14v2.67 3z m322.65-475.37H378.67011v-258.55h266.68z m28.82 238.14l-0.66-1.1a189.69 189.69 0 0 0-186.24-88.78c-57.94 7.42-106.7 41.91-135.77 89.88a189.66 189.66 0 0 0-186.9-89.88 180.69 180.69 0 0 0-43.6 11.22v-418h201.64V235.08c0 22.7 19.55 38.11 40.85 38.11h297c21.34 0 40.92-15.37 40.92-38.11v-276.47H903.00011v418a189.88 189.88 0 0 0-93.09-11.17c-57.91 7.4-106.67 41.89-135.74 89.86z m240.3 410.13L1012.00011 745.67a35.17 35.17 0 0 0 3-4.48 28 28 0 0 0 9-20.6v-167.45a188.48 188.48 0 0 0-67.13-144.56h2.19V-64a33.45 33.45 0 0 0-33.46-33.46H98.43011A33.45 33.45 0 0 0 65.00011-64.52v473.1h3.3C26.26011 444.76 0.00011 499.35 0.00011 558.81V720.59a27.92 27.92 0 0 0 9.43 21 35.87 35.87 0 0 0 3.1 4.73l98 119.15z"  horiz-adv-x="1024" />

    
    <glyph glyph-name="card2" unicode="&#58950;" d="M910.22 782.22H682.67v-227.55h227.55z m-568.89 0H113.78v-227.55h227.55zM1024 896v-455.11H568.89V896zM455.11 896v-455.11H0V896zM341.33 213.33H113.78v-227.55h227.55z m568.89 0H682.67v-227.55h227.55zM1024 327.11V-128H568.89V327.11z m-568.89 0V-128H0V327.11z"  horiz-adv-x="1024" />

    
    <glyph glyph-name="home_select" unicode="&#58951;" d="M914.47011 865.42L1012.00011 745.66a34.48 34.48 0 0 0 3-4.48 27.94 27.94 0 0 0 9-20.13v-106.43c0-82.29-52.19-151.38-124.29-177.8A133.68 133.68 0 0 0 817.05011 421a125.31 125.31 0 0 0-45.78 15.25c-40.81 14.78-74.77 43.68-97.1 80.54a190.26 190.26 0 0 0-97.11-80A133.67 133.67 0 0 0 494.38011 421a125.31 125.31 0 0 0-45.78 15.25c-40.81 14.78-74.77 43.68-97.1 80.53a190.29 190.29 0 0 0-97.11-79.95A133.65 133.65 0 0 0 171.72011 421a125.11 125.11 0 0 0-45.8 15.26C52.45011 462.87 1.21011 535.24 0.00011 617.38V720.59a27.92 27.92 0 0 0 9.43 21 36.44 36.44 0 0 0 3.1 4.72l98 119.15zM674.18011 455.3c29.06-48 77.82-82.47 135.76-89.88a189.19 189.19 0 0 1 149.12 45v-473.24c0-17.88-13.39-34.27-32.87-34.6H689.47011V206.09c0 21.1-18 35.43-37.75 35.72H372.81011c-20 0-38.28-14.44-38.28-35.72v-303.51H98.43011c-19.6 0-33.18 16.21-33.45 34.06V411.51a183.09 183.09 0 0 1 99.63-46.09 189.68 189.68 0 0 1 186.91 89.87c29.06-48 77.82-82.46 135.76-89.87a189.67 189.67 0 0 1 186.9 89.88z"  horiz-adv-x="1024" />

    
    <glyph glyph-name="star_select" unicode="&#58952;" d="M1020.48327 503.74a69.65 69.65 0 0 1-56.86 47.4l-268.44 38.57-120 240.68a70.73 70.73 0 0 1-126.33 0l-120-240.68-268.44-38.57a69.49 69.49 0 0 1-56.86-47.4C-4.89673 478.29 2.00327 450.93 21.28327 432.18l194.35-187.36-45.89-264.5a68.72 68.72 0 0 1 28-68.18 70.53 70.53 0 0 1 74.2-5.34L512.00327 31.67 752.10327-93.2a70.54 70.54 0 0 1 74.2 5.34 68.72 68.72 0 0 1 28 68.18l-45.9 264.5 194.29 187.36a68.94 68.94 0 0 1 17.79 71.56"  horiz-adv-x="1024" />

    
    <glyph glyph-name="my" unicode="&#58953;" d="M784.06 443.09Q744.61 363.7 698.9 355t-85.15 41.9z m-529.79 0l170.3-46.19Q385 346.21 339.42 355t-85.15 88.09z m570.2 349.73h-610c-74.36-0.51-114.69-36.71-127.1-111.14v-616.43C110.14 7.69 153.25-21.6 221-25c68.85-3.48 105.74 15.64 117.88 52.94l13 82.33c3.66 23.91 6.63 44.22 8.92 60.78l3.88 30.12c-154.27 35.12-224.76 156-208.89 353.08l2.44 30.31 274.5-55.93 85.53-103 78.18 102.57 195.71 44.63L885.21 593l1-32.19c6.25-199.41-62.94-321.85-206.45-358.6l34-171.34c12.94-34 42.06-52.42 92.48-55.95 47.75-3.37 90.23 20.44 129.11 74.64l1.33 413.53q0 116.62-0.69 177.76l-0.71 40.15c-1.76 70.85-57.53 110.66-110.81 111.82zM450.15 847.29l375.5-0.59c79-1.72 160.91-60.18 163.51-164.33l0.91-62.66q0.46-57.58 0.47-151.89l-1.41-435.16-4.64-6.8c-50.15-73.58-111.42-109.67-182.06-104.68-70 4.89-118 35.29-140.31 94.84l-45.8 228.87 27.28 4.7C764 270.34 826.54 354.95 832.29 511.27l0.38 15.35L627.49 480 520.06 339.08l-116.68 140.5-195.64 39.87c-5.45-161.51 57-248.34 189.87-269.81l21.92-3.54 0.71-22.2-0.11-6.65c-0.87-17.49-5.8-55.13-15.21-115.87l-13.73-85.9c-21.45-67.64-81.83-98.93-172.89-94.33-90.6 4.58-153.22 48.7-183.18 129.79l-1.66 9.33L33.8 686C50.69 790.19 112.89 846 214.1 846.7z"  horiz-adv-x="1024" />

    
    <glyph glyph-name="service1" unicode="&#58954;" d="M971.23 445.9h-79.78v-212.13h79.78z m-838.62 0H52.77v-212.13h79.84zM666.1 340.47a26.39 26.39 0 0 0 26.38-26.39c0-99.68-80.77-180.47-180.41-180.47A180.45 180.45 0 0 0 331.6 314.08a26.39 26.39 0 1 0 52.77 0 127.67 127.67 0 1 1 255.34 0 26.4 26.4 0 0 0 26.39 26.39zM512.07 851.9c200.77 0 365.11-155.9 378.66-353.23h92.9A40.4 40.4 0 0 0 1024 458.3v-236.93A40.39 40.39 0 0 0 983.63 181h-92v-39.84c0-120.64-94.91-219.11-214.15-224.8l-10.91-0.26h-154.5v52.77h154.5a172.29 172.29 0 0 1 172 162.51l0.27 9.78v41.52h-0.19V483.32C832.86 658.73 688.88 799.13 512.07 799.13c-176.51 0-320.33-139.9-326.64-314.87l-0.05-3.21v-259.68A40.41 40.41 0 0 0 145 181H40.37A40.39 40.39 0 0 0 0 221.37V458.3a40.4 40.4 0 0 0 40.37 40.37h93C146.9 696 311.28 851.9 512.07 851.9z"  horiz-adv-x="1024" />

    
    <glyph glyph-name="my_select" unicode="&#58955;" d="M784.06 443.09Q744.61 363.7 698.9 355t-85.15 41.9z m-529.79 0l170.3-46.19Q385 346.21 339.42 355t-85.15 88.09z m195.88 404.2l375.5-0.59c79-1.72 160.91-60.18 163.51-164.33l0.91-62.66q0.46-57.58 0.47-151.89l-1.41-435.16-4.64-6.8c-50.15-73.58-111.42-109.67-182.06-104.68-70 4.89-118 35.29-140.31 94.84l-45.8 228.87 27.28 4.7C764 270.34 826.54 354.95 832.29 511.27l0.38 15.35L627.49 480 520.06 339.08l-116.68 140.5-195.64 39.87c-5.45-161.51 57-248.34 189.87-269.81l21.92-3.54 0.71-22.2-0.11-6.65c-0.87-17.49-5.8-55.13-15.21-115.87l-13.73-85.9c-21.45-67.64-81.83-98.93-172.89-94.33-90.6 4.58-153.22 48.7-183.18 129.79l-1.66 9.33L33.8 686C50.69 790.19 112.89 846 214.1 846.7z"  horiz-adv-x="1024" />

    
    <glyph glyph-name="shopingBag_select" unicode="&#58956;" d="M512 802.43c-84.23 0-143.73-33.65-173-99.56h-57.76c-7.68-22.64-12.83-47.61-15.24-74.87l-0.74-11.57-0.52-15.11c-0.41-16.82-0.5-38.71-0.33-64.9l0.4-39 1.09-60.27 53.88 1.28-1.08 59.71-0.47 62.29 0.21 30c0.22 14.66 0.63 25.84 1.24 32.77 2.69 30.32 9.2 56.86 19.29 79.57H685c-29.25 66.01-88.77 99.66-173 99.66z m0 53.89c114.69 0 197.12-54.23 230.77-153.45H685q13.1-29.48 18-67.54l1.29-12c1-11.09 1.46-33.05 1.47-62.77l-0.47-62.29-1.1-59.7 53.88-1.3 1.1 60.27 0.41 39c0.28 43.65-0.16 75.37-1.61 91.59-2.41 27.21-7.54 52.18-15.22 74.81h117.84a51.38 51.38 0 0 0 51.3-48.1L956-33.7a51.42 51.42 0 0 0-51.31-54.62H119.31a51.35 51.35 0 0 0-51.25 54.65l43.62 688.43a51.39 51.39 0 0 0 51.3 48.1h118.26C314.92 802.1 397.32 856.32 512 856.32z"  horiz-adv-x="1024" />

    
    <glyph glyph-name="menu_select" unicode="&#58957;" d="M899.84 838a32.07 32.07 0 0 0 32.06-32.08V476.3a32.07 32.07 0 0 0-32.06-32.06H570.22a32.07 32.07 0 0 0-32.06 32.06V805.92A32.07 32.07 0 0 0 570.22 838z m-480.6 0a32.07 32.07 0 0 0 32.06-32.08V476.3a32.07 32.07 0 0 0-32.06-32.06H89.62a32.07 32.07 0 0 0-32.06 32.06V805.92A32.07 32.07 0 0 0 89.62 838z m312.5-522.14A148.77 148.77 0 0 1 583 167.08c0-82.15 66.61-148.76 148-148.77l9.21 0.24a148.77 148.77 0 0 1-8.46 297.29z m-312.5 46.52a32.07 32.07 0 0 0 32.06-32.08v-329.62a32.06 32.06 0 0 0-32.06-32H89.62a32.06 32.06 0 0 0-32.06 32V330.3a32.07 32.07 0 0 0 32.06 32.06z m312.5 7.37c111.91 0 202.65-90.74 202.65-202.65a201.58 201.58 0 0 0-42.28-123.82l71.11-71.12a11 11 0 0 0 0-15.57l-23.33-23.33a11 11 0 0 0-15.57 0l-71.46 71.44a203 203 0 0 0-110.4-40l-10.72-0.29c-111.91 0-202.66 90.75-202.66 202.66s90.75 202.66 202.66 202.66z"  horiz-adv-x="1024" />

    
    <glyph glyph-name="menu" unicode="&#58958;" d="M878 784.08H592.06v-285.94H878z m-480.6 0H111.46v-285.94H397.4zM899.84 838a32.07 32.07 0 0 0 32.06-32.08V476.3a32.07 32.07 0 0 0-32.06-32.06H570.22a32.07 32.07 0 0 0-32.06 32.06V805.92A32.07 32.07 0 0 0 570.22 838z m-480.6 0a32.07 32.07 0 0 0 32.06-32.08V476.3a32.07 32.07 0 0 0-32.06-32.06H89.62a32.07 32.07 0 0 0-32.06 32.06V805.92A32.07 32.07 0 0 0 89.62 838zM397.4 308.47H111.46v-286H397.4z m334.34 7.37A148.77 148.77 0 0 1 583 167.08c0-82.15 66.61-148.76 148-148.77l9.21 0.24a148.77 148.77 0 0 1-8.46 297.29z m-312.5 46.52a32.07 32.07 0 0 0 32.06-32.06v-329.62a32.06 32.06 0 0 0-32.06-32H89.62a32.06 32.06 0 0 0-32.06 32V330.3a32.07 32.07 0 0 0 32.06 32.06z m312.5 7.37c111.91 0 202.65-90.74 202.65-202.65a201.58 201.58 0 0 0-42.28-123.82l71.11-71.12a11 11 0 0 0 0-15.57l-23.33-23.33a11 11 0 0 0-15.57 0l-71.46 71.46a203 203 0 0 0-110.4-40l-10.72-0.29c-111.91 0-202.66 90.75-202.66 202.66s90.75 202.66 202.66 202.66z"  horiz-adv-x="1024" />

    
    <glyph glyph-name="shopingBag" unicode="&#58959;" d="M512 802.43c-84.23 0-143.73-33.65-173-99.56h346c-29.25 65.91-88.77 99.56-173 99.56zM858.26 649H755.52q1.5-10.22 2.45-20.91c1.45-16.22 1.89-47.94 1.61-91.59l-0.41-39-1.1-60.27-53.88 1.3 1.1 59.7 0.47 62.29c0 29.72-0.48 51.68-1.47 62.77l-1.29 12q-0.88 7-2 13.65H323q-2.14-12.35-3.34-25.67c-0.61-6.93-1-18.11-1.24-32.77l-0.21-30 0.47-62.29 1.08-59.71-53.88-1.28-1.09 60.27-0.4 39c-0.17 26.19-0.08 48.08 0.33 64.9l0.52 15.11 0.76 11.5q0.94 10.69 2.45 20.92H165.31L122-34.43h780zM512 856.32c114.69 0 197.12-54.23 230.77-153.45h117.82a51.38 51.38 0 0 0 51.3-48.1L956-33.7a51.42 51.42 0 0 0-51.31-54.62H119.31a51.35 51.35 0 0 0-51.25 54.65l43.62 688.43a51.39 51.39 0 0 0 51.3 48.1h118.26C314.92 802.1 397.32 856.32 512 856.32z"  horiz-adv-x="1024" />

    
    <glyph glyph-name="membership" unicode="&#58947;" d="M978.4 465.1L795 767.6v0.4H228.7L45.9 465.1l466.2-497.3 0.1-0.1 0.1 0.1 466.1 497.3zM282.7 672h457.9l117.9-194.4-346.3-369.5-347 370.1L282.7 672zM303.1 462l209-222.9v-0.1h0.1v0.1l209 222.9-70 65.7-139-148.3-139.1 148.3z"  horiz-adv-x="1024" />

    
    <glyph glyph-name="pim-open-platform" unicode="&#59121;" d="M513.8 861.1L99.7 621.9v-478.2l414.2-239.1L928 143.7V621.9L513.8 861.1z m-6.6-418L243.5 595.3l270.3 156.1 263.6-152.2-270.2-156.1zM559 40.4v323l274 158.2v-323L559 40.4z m-95 2.6L194.7 198.5V513.8L464 358.3V43z"  horiz-adv-x="1024" />

    
    <glyph glyph-name="bianji" unicode="&#58939;" d="M572.050286 839.094857v-113.737143H114.395429v-739.547428h743.716571V440.905143h114.395429V-128H0V839.094857h572.050286zM943.104 896L1024 815.542857 538.550857 332.8 457.654857 413.257143 943.104 896z"  horiz-adv-x="1024" />

    
    <glyph glyph-name="vip" unicode="&#59259;" d="M698.2 500.4L512 872.7 325.8 500.4 0 546.9l186.2-465.5h651.6L1024 546.9l-325.8-46.5z m76.6-325.8H249.2L146.2 432 379 398.7l133 265.9 132.9-265.9L877.8 432l-103-257.4zM232.7-11.6h558.5v-93.1H232.7z"  horiz-adv-x="1024" />

    
    <glyph glyph-name="unlock" unicode="&#59260;" d="M804.6 505.9v97.5C804.6 764.8 673.3 896 512 896S219.4 764.8 219.4 603.4H317c0 107.6 87.5 195 195 195s195-87.5 195-195v-97.5H24.4V-128h975.2V505.9h-195z m97.5-536.4H121.9V408.4h780.2v-438.9z"  horiz-adv-x="1024" />

    
    <glyph glyph-name="lock" unicode="&#59261;" d="M804.6 505.9v97.5C804.6 764.8 673.3 896 512 896S219.4 764.8 219.4 603.4v-97.5h-195V-128h975.2V505.9h-195zM317 603.4c0 107.6 87.5 195 195 195s195-87.5 195-195v-97.5H317v97.5z m585.1-633.9H121.9V408.4h780.2v-438.9z"  horiz-adv-x="1024" />

    
    <glyph glyph-name="expressdelivery" unicode="&#59263;" d="M512 896L27.2 653.6v-539.2L512-128l484.8 242.4V653.6L512 896z m342.1-269.6L512 455.3 169.9 626.4 512 797.4l342.1-171z m-738.7-71.3L468 378.8v-386.2L115.4 168.9V555.1z m440.7-562.5V378.8l352.6 176.3v-386.2L556.1-7.4z"  horiz-adv-x="1024" />

    
    <glyph glyph-name="ruledisabled" unicode="&#59264;" d="M1024 525.6L653.6 896 357.7 600.1 158.1 799.6l-61.7-61.7L296 538.3 0 242.4 370.4-128l295.9 295.9 194-194 61.7 61.7-194 194 296 296zM512 631l92.6-92.6 61.7 61.7-92.6 92.6 79.8 79.8 247-247-234.1-234.1-247 247L512 631zM370.4-4.5l-247 247 79.8 79.8 92.6-92.6 61.7 61.7L265 384l92.6 92.6 247-247-234.2-234.1z"  horiz-adv-x="1024" />

    
    <glyph glyph-name="rule" unicode="&#59265;" d="M653.6 896L439.4 681.8 295.9 538.4 0 242.4 370.4-128 1024 525.6 653.6 896zM123.5 242.4l79.8 79.8 92.6-92.6 61.7 61.7L265 384l92.6 92.6 92.6-92.6 61.7 61.7-92.6 92.6L512 631l92.6-92.6 61.7 61.7-92.6 92.6 79.8 79.8 247-247-530.1-530.1-246.9 247z"  horiz-adv-x="1024" />

    
    <glyph glyph-name="limited" unicode="&#59266;" d="M511.9 678.4c-46.6 0-92-8.8-134.9-26.3-44.4-18-84.3-44.4-118.6-78.7-34.1-34.3-60.7-74.2-78.7-118.6-17.4-42.9-26.3-88.4-26.3-134.9 0-46.2 8.9-92 26.3-134.9 18-44.4 44.4-84.3 78.7-118.6 34.3-34.1 74.2-60.7 118.6-78.7 42.8-17.4 88.4-26.3 134.9-26.3 46.2 0 92 8.9 134.9 26.3 44.4 18 84.3 44.4 118.6 78.7 34.1 34.3 60.7 74.2 78.7 118.6 17.4 42.9 26.3 88.4 26.3 134.9 0 46.2-8.9 92-26.3 134.9-18 44.4-44.4 84.3-78.7 118.6-34.3 34.1-74.2 60.7-118.6 78.7-42.9 17.5-88.4 26.3-134.9 26.3z m-316.8-41.7C282.7 724.2 397.3 768 512 768c114.6 0 229.4-43.8 316.6-131.2 175-175 175-458.7 0-633.6-87.4-87.4-202.1-131.2-316.7-131.2s-229.4 43.6-316.8 131.2c-175 175-175 458.5 0 633.5z m361.6-301.8l179.2-59.7v-89.6l-268.8 89.6V544h89.6v-209.1zM894.6 695.7c-46.8 50.7-105 91.1-168.5 117L760 895.7c75.6-30.8 144.9-79 200.5-139.3l-65.9-60.7zM129.4 695.8l-65.8 60.8C119.3 817 188.8 865.2 264.6 896l33.7-83c-63.6-25.9-122-66.4-168.9-117.2z"  horiz-adv-x="1024" />

    
    <glyph glyph-name="time-fill" unicode="&#59267;" d="M874 746.1C774.3 846 643.2 896 512.2 896 381 896 250.1 846 150 745.9c-200-200-200-524 0-724 99.9-100 231-149.9 362-149.9s262.1 50 362 149.9c200 200 200 524.2 0 724.2zM744.7 244.4l-279.3 93.1V709.8h93.1v-310.3l186.2-62.1v-93z"  horiz-adv-x="1024" />

    
    <glyph glyph-name="time" unicode="&#59268;" d="M874 746.1C774.3 846 643.2 896 512.2 896 381 896 250.1 846 150 745.9c-200-200-200-524 0-724 99.9-100 231-149.9 362-149.9s262.1 50 362 149.9c200 200 200 524.2 0 724.2z m-65.8-658.3c-40.1-40.1-86.7-70.9-138.6-92-50-20.3-103.6-30.8-157.6-30.7-54.4 0-107.6 10.3-157.6 30.7-51.9 21-98.5 52.1-138.6 92-40.1 40.1-70.9 86.7-92 138.6C103.5 276.4 93 330 93.1 384c0 54.4 10.3 107.6 30.7 157.7 21 51.9 52.1 98.5 92 138.6 40.1 40.1 86.7 70.9 138.6 92C404.5 792.7 457.5 803 512 803c54.4 0 107.6-10.3 157.7-30.7 51.9-21 98.5-52.1 138.6-92 40.1-40.1 70.9-86.7 92-138.6C920.5 491.6 931 438 930.9 384c0-54.4-10.4-107.6-30.7-157.6-21-51.9-52.1-98.6-92-138.6zM558.5 709.8h-93v-372.3l279.2-93.1v93.1l-186.2 62z"  horiz-adv-x="1024" />

    
    <glyph glyph-name="address" unicode="&#59269;" d="M743.2 652.8c4.6 64.1-16.9 119.4-66.6 161.8-90.9 77.5-238.2 77.5-329.1 0-30.7-26.2-50.1-57.5-60.1-92.5L0 640v-744.7l325.8 93.1 372.4-93.1 325.8 93.1V733.1l-280.8-80.3zM512 733.1c51.4 0 93.1-41.7 93.1-93.1 0-51.4-41.7-93.1-93.1-93.1-51.4 0-93.1 41.7-93.1 93.1 0 51.4 41.7 93.1 93.1 93.1z m418.9-674.5l-234.3-67-372.4 93.1-231.1-66V569.8l190.6 54.5c8.6-45.6 29.8-95.3 63.7-147.9 46.4-72 164.6-255.2 164.6-255.2s120.1 186.3 164.6 255.2c15.9 24.7 28 48.4 38.3 71.7l216 61.7v-551.2z"  horiz-adv-x="1024" />

    
    <glyph glyph-name="service-fill" unicode="&#59270;" d="M0 854.3v-744.7h744.7L1024-86.3V854.3H0z m372.4-418.9h-93.1v93.1h93.1v-93.1z m186.1 0h-93.1v93.1h93.1v-93.1z m186.2 0h-93.1v93.1h93.1v-93.1z"  horiz-adv-x="1024" />

    
    <glyph glyph-name="service" unicode="&#59271;" d="M0 854.3v-744.7h744.7L1024-86.3V854.3H0z m930.9-761.6l-156.8 110h-681V761.2h837.8v-668.5zM651.6 528.5h93.1v-93.1h-93.1zM465.5 528.5h93.1v-93.1h-93.1zM279.3 528.5h93.1v-93.1h-93.1z"  horiz-adv-x="1024" />

    
    <glyph glyph-name="livechat-fill" unicode="&#59272;" d="M1021 444c-3.9 25-11.8 48.2-23.1 68.7-19 34.3-48 60.4-85 74.1C853.4 767.1 696.5 896 512 896 327.5 896 170.4 767.1 110.9 586.7 74 573 45 546.9 26 512.7 14.7 492.2 6.9 469 3 444c-2-12.5-3-25.4-3-38.7 0-26.5 4-51.8 11.8-74.7 3.9-11.5 8.6-22.4 14.3-32.6 22.1-40 57.9-69 104.1-79.8 51.5-113.9 143.8-201 256-239.2 10.1-60.6 62.5-107 125.9-107 70.6 0 128 57.4 128 128s-57.4 128-128 128c-47.3 0-88.2-26.1-110.4-64.4-80.5 31.1-147.3 94.9-188 177.5 24.2 35.3 36.6 99.4 36.6 164.2 0 75.3-16.6 150-49.2 178.9C254.5 717.6 373.7 810.7 512 810.7c138.3 0 257.5-93.1 311.1-226.4-32.7-28.9-49.3-103.6-49.3-178.9 0-96 26.5-192 79.5-192 66.3 0 116.4 33.6 144.6 84.6 5.7 10.2 10.4 21.1 14.3 32.6 7.7 23 11.8 48.2 11.8 74.7 0 13.3-1 26.2-3 38.7z"  horiz-adv-x="1024" />

    
    <glyph glyph-name="livechat" unicode="&#59273;" d="M1021 444c-3.9 25-11.8 48.2-23.1 68.7-19 34.3-48 60.4-85 74.1C853.4 767.1 696.5 896 512 896 327.5 896 170.4 767.1 110.9 586.7 74 573 45 546.9 26 512.7 14.7 492.2 6.9 469 3 444c-2-12.5-3-25.4-3-38.7 0-26.5 4-51.8 11.8-74.7 3.9-11.5 8.6-22.4 14.3-32.6 22.1-40 57.9-69 104.1-79.8 51.5-113.9 143.8-201 256-239.2 10.1-60.6 62.5-107 125.9-107 70.6 0 128 57.4 128 128s-57.4 128-128 128c-47.3 0-88.2-26.1-110.4-64.4-80.5 31.1-147.3 94.9-188 177.5 24.2 35.3 36.6 99.4 36.6 164.2 0 75.3-16.6 150-49.2 178.9C254.5 717.6 373.7 810.7 512 810.7c138.3 0 257.5-93.1 311.1-226.4-32.7-28.9-49.3-103.6-49.3-178.9 0-96 26.5-192 79.5-192 66.3 0 116.4 33.6 144.6 84.6 5.7 10.2 10.4 21.1 14.3 32.6 7.7 23 11.8 48.2 11.8 74.7 0 13.3-1 26.2-3 38.7zM512 42.7c23.5 0 42.7-19.1 42.7-42.7 0-23.5-19.1-42.7-42.7-42.7-23.5 0-42.7 19.1-42.7 42.7 0 23.5 19.2 42.7 42.7 42.7zM150.4 509.9c19.7-46.5 19.7-162.6 0-209.2-61.6 13.5-65 88.4-65 104.6-0.1 16.2 3.3 91.1 65 104.6z m723.2-209.1c-19.7 46.5-19.7 162.6 0 209.2 61.6-13.5 65-88.4 65-104.6 0.1-16.3-3.3-91.1-65-104.6z"  horiz-adv-x="1024" />

    
    <glyph glyph-name="confirmation" unicode="&#59274;" d="M155.2 710.8V803.4h648.1v-509.2h92.6V896H62.7v-1018.4H433v92.6H155.2zM294.1 664.5h370.3v-92.6H294.1zM294.1 479.4h231.5v-92.6H294.1zM895.9 201.6L697.2 2.9 591 109.1l-65.4-65.5L697.2-128l264.1 264.2z"  horiz-adv-x="1024" />

    
    <glyph glyph-name="order" unicode="&#59275;" d="M0 849.5v-930.9h1024V849.5H0z m744.7-93.1v-256l-46.5 23.5-46.5-23.5v256h93z m186.2-744.7H93.1V756.4h465.5v-139.7H186.2v-93.1h372.4v-162.9l139.6 69.8 139.6-69.8V756.4h93.1v-744.7z"  horiz-adv-x="1024" />

    
    <glyph glyph-name="ordertracking" unicode="&#59276;" d="M698.2 337.4h93.1v-93.1h-93.1zM930.9 663.3H139.6c-25.7 0-46.5 20.8-46.5 46.5s20.8 46.5 46.5 46.5h558.5l93.1 93.1H139.6C62.5 849.5 0 786.9 0 709.8v-791.2h1024V756.4l-93.1-93.1z m0-564.8v-86.9H93.1V578.7c14.6-5.2 30.1-8.5 46.5-8.5h791.3v-471.7z"  horiz-adv-x="1024" />

    
    <glyph glyph-name="download" unicode="&#59277;" d="M1024 709.8V802.9H744.7v-93.1h186.2v-744.7H93.1V709.8h186.2V802.9H0V-128h1024zM715.7 373.8L558.5 248.1V896h-93v-647.9L308.3 373.8l-58.1-72.7L512 91.7l261.8 209.4z"  horiz-adv-x="1024" />

    
    <glyph glyph-name="more-star" unicode="&#59278;" d="M0 42.7h113.8v-113.8H0V42.7z m0 398.2h113.8v-113.8H0V440.9zM0 839.1h113.8v-113.8H0V839.1z m227.6-796.4H1024v-113.8H227.6V42.7z m0 398.2H1024v-113.8H227.6V440.9z m0 398.2H1024v-113.8H227.6V839.1z"  horiz-adv-x="1024" />

    
    <glyph glyph-name="more-star1" unicode="&#59279;" d="M0 42.7h1024v-113.8H0V42.7z m0 398.2h1024v-113.8H0V440.9zM0 839.1h1024v-113.8H0V839.1z"  horiz-adv-x="1024" />

    
    <glyph glyph-name="top" unicode="&#59280;" d="M0 896h1024v-102.4H0zM900.2 323.1L512 600.4 123.8 323.1l59.6-83.4L460.8 438v-566h102.4V438l277.5-198.3z"  horiz-adv-x="1024" />

    
    <glyph glyph-name="qrcode" unicode="&#59281;" d="M113.8 213.3v-227.6h227.6V213.3H113.8z m568.9 0v-227.6h227.6V213.3H682.7zM568.9 327.1H1024V-128H568.9V327.1z m0 568.9h113.8v-113.8H568.9V896z m0-284.4h170.7v-170.7H568.9V611.6zM0 327.1h455.1V-128H0V327.1zM0 896h455.1v-455.1H0V896z m1024-227.6v-113.8H910.2V668.4H796.4V896H1024v-227.6zM113.8 782.2v-227.6h227.6V782.2H113.8z"  horiz-adv-x="1024" />

    
    <glyph glyph-name="minus" unicode="&#59282;" d="M0 435.1h1024v-102.3H0z"  horiz-adv-x="1024" />

    
    <glyph glyph-name="plus" unicode="&#59283;" d="M460.9 435.1V895h102.2v-459.9H1023v-102.2H563.1V-127H460.9V332.9H1V435.1z"  horiz-adv-x="1024" />

    
    <glyph glyph-name="cancel" unicode="&#59284;" d="M512 467.2L940.8 896l83.2-83.2L595.2 384 1024-44.8l-83.2-83.2L512 300.8 83.2-128 0-44.8 428.8 384 0 812.8 83.2 896z"  horiz-adv-x="1024" />

    
    <glyph glyph-name="confirm" unicode="&#59285;" d="M956.4 725.3L1024 657 416.4 42.7 0 463.6 67.6 532l348.8-352.6z"  horiz-adv-x="1024" />

    
    <glyph glyph-name="addto-fill" unicode="&#59286;" d="M874 746.1C774.3 846 643.2 896 512.2 896 381 896 250.1 846 150 745.9c-200-200-200-524 0-724 99.9-100 231-149.9 362-149.9s262.1 50 362 150c200 199.9 200 524.1 0 724.1zM744.7 337.4H558.5v-186.2h-93.1V337.5H279.3v93.1h186.2V616.7h93.1v-186.2h186.1v-93.1z"  horiz-adv-x="1024" />

    
    <glyph glyph-name="addto" unicode="&#59287;" d="M512 802.9c-54.5 0-107.6-10.3-157.6-30.7-51.9-21-98.5-51.9-138.6-92-39.9-40.1-70.9-86.7-92-138.6-20.4-50-30.7-103.2-30.7-157.6-0.1-54 10.4-107.6 30.7-157.7 21-51.9 51.9-98.5 92-138.6 40.1-39.9 86.7-70.9 138.6-92C404.5-24.7 457.7-35 512-35c54-0.1 107.6 10.4 157.7 30.7 51.9 21 98.5 51.9 138.6 92 39.9 40.1 70.9 86.7 92 138.6 20.4 50.1 30.7 103.3 30.7 157.6 0.1 54-10.4 107.6-30.7 157.6-21 51.9-51.9 98.5-92 138.6-40.1 39.9-86.7 70.9-138.6 92-50.2 20.5-103.3 30.8-157.7 30.8z m0.2 93.1c131 0 262.1-50 361.8-149.9 200-200 200-524.2 0-724.1-99.9-100-231-150-362-150s-262.1 49.9-362 149.9c-200 200-200 524 0 724C250.1 846 381 896 512.2 896z m46.3-465.5h186.2v-93.1H558.5v-186.2h-93.1V337.5H279.3v93.1h186.2V616.7h93.1v-186.2z"  horiz-adv-x="1024" />

    
    <glyph glyph-name="message-fill" unicode="&#59288;" d="M874 746.1C774.1 846.1 643 896 512 896S249.9 846 150 746c-200-199.9-200-524.1 0-724.1C249.7-78 380.8-128 511.8-128c131.2 0 262.1 50 362.2 150.1 200 200 200 524 0 724zM558.5 104.7h-93.1V477.1h93.1v-372.4z m0 465.5h-93.1v93.1h93.1v-93.1z"  horiz-adv-x="1024" />

    
    <glyph glyph-name="message" unicode="&#59289;" d="M465.4 663.3h93.1v-93.1h-93.1zM465.4 477.1h93.1v-372.4h-93.1zM874 746.1C774.1 846.1 643 896 512 896S249.9 846 150 746c-200-199.9-200-524.1 0-724.1C249.7-78 380.8-128 511.8-128c131.2 0 262.1 50 362.2 150.1 200 200 200 524 0 724z m-65.8-658.4c-40.1-40.1-86.7-70.9-138.6-92-50.1-20.3-103.2-30.6-157.7-30.6-54.4 0-107.6 10.3-157.7 30.7-51.9 21-98.5 52.1-138.6 92-40.1 40.1-70.9 86.7-92 138.6C103.5 276.4 93 330 93.1 384c0 54.4 10.4 107.6 30.7 157.6 21 51.9 52.1 98.5 92 138.6 40.1 40.1 86.7 70.9 138.6 92C404.5 792.5 458 803 512.1 802.9c54.4 0 107.6-10.3 157.6-30.7 51.9-21 98.5-52.1 138.6-92 40.1-40.1 70.9-86.7 92-138.6C920.5 491.5 931 438 931 383.9c0-54.4-10.3-107.6-30.7-157.6-21.1-51.9-52.1-98.5-92.1-138.6z"  horiz-adv-x="1024" />

    
    <glyph glyph-name="hint-fill" unicode="&#59290;" d="M874 746.1C774.3 846 643.2 896 512.2 896 381 896 250.1 846 150 745.9c-200-200-200-524 0-724 99.9-100 231-149.9 362-149.9s262.1 50 362 150c200 199.9 200 524.1 0 724.1zM558.6 104.7h-93.1v93.1h93.1v-93.1z m0 186.2h-93.1V663.3h93.1v-372.4z"  horiz-adv-x="1024" />

    
    <glyph glyph-name="hint" unicode="&#59291;" d="M465.5 663.3h93.1v-372.4h-93.1zM465.5 197.8h93.1v-93.1h-93.1zM874 746.1C774.3 846 643.2 896 512.2 896 381 896 250.1 846 150 745.9c-200-200-200-524 0-724 99.9-100 231-149.9 362-149.9s262.1 50 362 150c200 199.9 200 524.1 0 724.1z m-66.7-657.3c-40.1-40.1-86.7-70.9-138.6-92-50.1-20.3-103.6-30.8-157.7-30.7-54.4 0-107.6 10.3-157.6 30.7-51.9 21-98.5 52.1-138.6 92-40.1 40.1-70.9 86.7-92 138.6-20.2 50-30.7 103.6-30.6 157.6 0 54.4 10.3 107.6 30.7 157.6 21 51.9 52.1 98.5 92 138.6 40.1 40.1 86.7 70.9 138.6 92 50 20.4 103.1 30.7 157.6 30.7 54.4 0 107.6-10.3 157.7-30.7 51.9-21 98.5-52.1 138.6-92 40.1-40.1 70.9-86.7 92-138.6 20.2-50 30.7-103.6 30.6-157.6 0-54.4-10.4-107.6-30.7-157.6-21-51.9-52.1-98.5-92-138.6z"  horiz-adv-x="1024" />

    
    <glyph glyph-name="losing-fill" unicode="&#59292;" d="M874.20013 746C781.40013 838.7 653.40013 895.9 511.90013 895.9 229.10013 896 0.00013 666.8 0.00013 384c-0.1-141.4 57.4-269.4 150-361.9 92.6-92.6 220.7-150 362-150 282.8 0 512 229.2 512 512 0.2 141.2-57.2 269.3-149.8 361.9zM643.60013 186.7L512.00013 318.2 380.40013 186.6l-65.8 65.8L446.20013 384 314.50013 515.7l65.8 65.8L512.00013 449.9l131.6 131.6 65.8-65.8-131.6-131.6 131.6-131.6-65.8-65.8z"  horiz-adv-x="1024" />

    
    <glyph glyph-name="losing" unicode="&#59293;" d="M808.20013 680.3C769.70013 718.8 724.80013 749 675.00013 770c-51.6 21.8-106.4 33-163 33-56.5-0.1-111.5-11.1-163-33-49.8-21-94.8-51.3-133.2-89.8C177.60013 642 147.10013 596.8 126.00013 547c-21.8-51.6-33-106.4-33-163 0.1-56.5 11.1-111.5 33-163 21-49.8 51.3-94.7 89.8-133.2C254.00013 49.5 299.20013 19.1 349.00013-2c51.6-21.8 106.3-33 163-33 56.5 0.1 111.5 11.1 163 33 49.8 21 94.7 51.3 133.2 89.8C846.50013 126 876.90013 171.3 898.00013 221c21.8 51.6 33 106.4 33 163-0.1 56.5-11.1 111.5-33 163-21.1 49.9-51.4 94.8-89.8 133.3z m66 65.7c92.6-92.6 150-220.7 149.8-361.9 0-282.8-229.2-512-512-512-141.3 0-269.4 57.4-362 150C57.40013 114.6-0.09987 242.6 0.00013 384 0.00013 666.8 229.10013 896 511.90013 895.9 653.40013 895.9 781.40013 838.7 874.20013 746zM577.80013 384.1l131.6-131.6-65.8-65.8L512.00013 318.2 380.40013 186.6l-65.8 65.8L446.20013 384 314.50013 515.7l65.8 65.8L512.00013 449.9l131.6 131.6 65.8-65.8-131.6-131.6z"  horiz-adv-x="1024" />

    
    <glyph glyph-name="successful-fill" unicode="&#59294;" d="M874.20013 746C781.40013 838.7 653.40013 895.9 511.90013 895.9 229.10013 896 0.00013 666.8 0.00013 384c-0.1-141.4 57.4-269.4 150-361.9 92.6-92.6 220.7-150 362-150 282.8 0 512 229.2 512 512 0.2 141.2-57.2 269.3-149.8 361.9zM461.00013 186.7L229.70013 417.2l65.6 65.9 166.1-165.5L729.00013 581.3l65.3-66.2L461.00013 186.7z"  horiz-adv-x="1024" />

    
    <glyph glyph-name="successful" unicode="&#59295;" d="M874.20013 746C781.40013 838.7 653.40013 895.9 511.90013 895.9 229.10013 896 0.00013 666.8 0.00013 384c-0.1-141.4 57.4-269.4 150-361.9 92.6-92.6 220.7-150 362-150 282.8 0 512 229.2 512 512 0.2 141.2-57.2 269.3-149.8 361.9z m-66-658.2C769.70013 49.3 724.80013 19 675.00013-2c-51.5-21.9-106.5-32.9-163-33-56.7 0-111.4 11.2-163 33-49.8 21.1-95 51.5-133.2 89.8C177.30013 126.3 147.00013 171.2 126.00013 221c-21.9 51.5-32.9 106.5-33 163 0 56.6 11.2 111.4 33 163 21.1 49.8 51.6 95 89.8 133.2C254.20013 718.7 299.20013 749 349.00013 770c51.5 21.9 106.5 32.9 163 33 56.6 0 111.4-11.2 163-33 49.8-21 94.7-51.2 133.2-89.7 38.4-38.5 68.7-83.4 89.8-133.3 21.9-51.5 32.9-106.5 33-163 0-56.6-11.2-111.4-33-163-21.1-49.7-51.5-95-89.8-133.2zM461.40013 317.6L295.30013 483.1l-65.6-65.9L461.00013 186.7l333.3 328.4-65.3 66.2z"  horiz-adv-x="1024" />

    
    <glyph glyph-name="eye-off" unicode="&#59296;" d="M1024 623.6H907.4c-62.6-135.3-217.8-229-395.5-229s-332.8 93.6-395.5 229H0c0.5-2 1-4 1.7-6C37.4 514.9 111 429 206.6 370.4l-83.8-145.2 94.1-54.3 87.7 151.9c48.1-17.8 99.7-29.6 153.2-34.3v-144.1h108.6V288.5C619.7 293.3 671 305 719 322.8l87.7-151.9 94.1 54.3L817 370.3c97.5 59.8 172.1 147.9 207 253.3z"  horiz-adv-x="1024" />

    
    <glyph glyph-name="mycenterinformatio" unicode="&#59297;" d="M486.2 505.9c80.8 0 146.3 65.5 146.3 146.3S566.9 798.5 486.2 798.5c-80.8 0-146.3-65.5-146.3-146.3s65.5-146.3 146.3-146.3z m0-97.5c-134.7 0-243.8 109.2-243.8 243.8S351.5 896 486.2 896C620.8 896 730 786.8 730 652.2S620.8 408.4 486.2 408.4z m195-438.9h292.6v-97.5H681.2v97.5z m0 195.1h292.6V67H681.2v97.6z m124.3 48.7H663.2c-48.2 29.5-107.5 44.2-178 44.2-200.7 0-311.5-119.6-332.4-358.8H50.2c46 309.1 191.2 463.7 435.8 463.7 138.6 0 245.2-49.7 319.5-149.1z"  horiz-adv-x="1024" />

    
    <glyph glyph-name="cumulativescoring" unicode="&#59298;" d="M512 384c282.8 0 512 114.6 512 256S794.8 896 512 896 0 781.4 0 640s229.2-256 512-256z m0 409.6c254.1 0 409.6-99.4 409.6-153.6S766.1 486.4 512 486.4 102.4 585.8 102.4 640 257.9 793.6 512 793.6zM512 230.4c-254.1 0-409.6 99.5-409.6 153.6H0c0-141.4 229.2-256 512-256s512 114.6 512 256H921.6c0-54.2-155.5-153.6-409.6-153.6zM512-25.6c-254.1 0-409.6 99.5-409.6 153.6H0c0-141.4 229.2-256 512-256s512 114.6 512 256H921.6c0-54.2-155.5-153.6-409.6-153.6z"  horiz-adv-x="1024" />

    
    <glyph glyph-name="calendar" unicode="&#59299;" d="M972.8 793.6H819.2V896H716.8v-102.4H307.2V896H204.8v-102.4H0V-128h1024V793.6h-51.2z m-51.2-819.2H102.4v512h819.2v-512zM102.4 588.8V691.2h819.2v-102.4H102.4zM204.8 384h102.4v-102.4H204.8zM204.8 179.2h102.4v-102.4H204.8zM460.8 179.2h102.4v-102.4H460.8zM460.8 384h102.4v-102.4H460.8zM716.8 384h102.4v-102.4H716.8z"  horiz-adv-x="1024" />

    
    <glyph glyph-name="eye-on" unicode="&#59300;" d="M512 65.4c-182 0-347.4 98.1-491.7 291.4L0 384l20.3 27.2C164.6 604.6 330 702.6 512 702.6s347.4-98.1 491.7-291.4L1024 384l-20.3-27.2C859.4 163.4 694 65.4 512 65.4zM114.2 384c122-153.1 252.4-227.6 397.8-227.6S787.8 230.9 909.8 384C787.8 537.1 657.4 611.6 512 611.6S236.2 537.1 114.2 384zM512 201.9c-100.4 0-182.1 81.7-182.1 182.1S411.6 566.1 512 566.1 694.1 484.4 694.1 384 612.4 201.9 512 201.9z m0 273.1c-50.2 0-91-40.9-91-91s40.8-91 91-91 91 40.9 91 91-40.8 91-91 91z"  horiz-adv-x="1024" />

    
    <glyph glyph-name="orderreturn" unicode="&#59301;" d="M557.2 372L299.4 543.4 76.8 427.6V896h870.4v-471.8L770.7 539.8 557.2 372zM305.8 662.1l246.4-163.8 213.1 167.3 79.5-52.1v180H179.2v-197.2l126.6 65.8zM947.2-128H76.8V330.3l224.1 112.1 251.2-150.7L767.8 447l179.4-127.6V-128z m-768 102.4h665.6V266.5L768.2 321l-211-151.9-260.8 156.6L179.2 267v-292.6z"  horiz-adv-x="1024" />

    
    <glyph glyph-name="order1" unicode="&#59302;" d="M581.4 896H76.8v-1024h870.4V525.3L581.4 896z m7.4-153.3l202.4-205.1H588.8V742.7zM179.2-25.6V793.6h307.2v-358.4h358.4v-460.8H179.2z"  horiz-adv-x="1024" />

    
    <glyph glyph-name="gift" unicode="&#59303;" d="M759.294991 540.186467C849.993154 580.385652 903.692067 626.084727 921.991696 679.583643c11.699763 33.999311 14.899698 87.698224-36.099269 150.09696-50.998967 62.498734-104.097892 69.798586-139.69717 65.19868-82.998319-11.099775-164.296672-99.797979-252.894878-277.194386-22.799538 112.797715-62.398736 182.996294-120.697556 212.79569-48.89901 24.999494-105.297867 20.299589-167.796601-13.79972-59.298799-32.299346-87.098236-71.898544-82.498329-117.797615 5.799883-58.498815 66.298657-107.997813 195.196046-158.696785H49.409369V-128h925.181262V540.186467H759.294991z m0.49999 252.79488c0.99998 0.199996 2.299953 0.299994 4.099917 0.299993 7.499848 0 21.799558-3.399931 42.399141-28.59942 25.499484-31.199368 20.299589-46.599056 18.499626-51.698953-5.499889-15.999676-38.199226-66.998643-230.09534-122.697515C686.896458 768.581841 743.095319 790.681393 759.794981 792.981347z m-533.289199-85.898261c3.499929 3.799923 11.299771 10.499787 27.399445 19.199611 30.999372 16.899658 55.098884 21.199571 71.998542 12.499747 12.799741-6.499868 40.199186-30.09939 61.098763-115.397662-121.197545 43.899111-152.796905 73.598509-160.49675 83.698304z m-74.298495-269.694537h308.393754v-154.196877H152.207287V437.388549z m0-256.994795h308.393754v-205.595836H152.207287V180.393754z m719.585426-205.595836H563.398959V180.393754h308.393754v-205.595836z m0 308.393754H563.398959V437.388549h308.393754v-154.196877z"  horiz-adv-x="1024" />

    
    <glyph glyph-name="card-fill" unicode="&#59304;" d="M0-34.9h1024v512H0v-512z m186.2 325.8h139.6v-93.1H186.2v93.1zM0 802.9h1024v-232.7H0z"  horiz-adv-x="1024" />

    
    <glyph glyph-name="card" unicode="&#59305;" d="M0 802.9v-837.8h1024V802.9H0z m930.9-744.7H93.1V477.1h837.8v-418.9z m0 512H93.1V709.8h837.8v-139.6zM186.2 290.9h139.6v-93.1H186.2z"  horiz-adv-x="1024" />

    
    <glyph glyph-name="fullscreen" unicode="&#59306;" d="M1023.5-127.5H716.6V-25.2h204.6V179.4h102.3v-306.9z m-716.1 0H0.5V179.4h102.3v-204.6h204.6v-102.3z m716.1 716.1H921.2V793.2H716.6V895.5h306.9v-306.9z m-920.7 0H0.5V895.5h306.9v-102.3H102.8v-204.6z"  horiz-adv-x="1024" />

    
    <glyph glyph-name="exit-fullscreen" unicode="&#59307;" d="M768-128H665.6V230.4H1024V128H768v-256z m-409.6 0H256V128H0V230.4h358.4V-128zM1024 537.6H665.6V896H768v-256h256v-102.4z m-665.6 0H0V640h256V896h102.4v-358.4z"  horiz-adv-x="1024" />

    
    <glyph glyph-name="share-star" unicode="&#59308;" d="M814.5 244.4c-47.6 0-90.6-18.5-123.5-47.9L409.7 384 691 571.5c32.9-29.5 75.9-47.9 123.5-47.9 102.7 0 186.2 83.5 186.2 186.2S917.2 896 814.5 896 628.4 812.5 628.4 709.8c0-21.4 4.4-41.7 11.1-60.8L372.9 471.3c-31.4 58.5-92.5 98.9-163.4 98.9-102.7 0-186.2-83.5-186.2-186.2s83.5-186.2 186.2-186.2c70.9 0 132 40.3 163.4 98.9L639.4 119c-6.7-19.2-11.1-39.4-11.1-60.8 0-102.7 83.5-186.2 186.2-186.2s186.2 83.5 186.2 186.2-83.5 186.2-186.2 186.2z m0 558.5c51.3 0 93.1-41.8 93.1-93.1s-41.8-93.1-93.1-93.1-93.1 41.8-93.1 93.1 41.8 93.1 93.1 93.1z m-605-512c-51.3 0-93.1 41.8-93.1 93.1s41.7 93.1 93.1 93.1 93.1-41.8 93.1-93.1-41.8-93.1-93.1-93.1z m605-325.8c-51.3 0-93.1 41.8-93.1 93.1s41.8 93.1 93.1 93.1 93.1-41.8 93.1-93.1c0-51.4-41.7-93.1-93.1-93.1z"  horiz-adv-x="1024" />

    
    <glyph glyph-name="share-star1" unicode="&#59309;" d="M0 802.9h279.3v-93.1H93.1v-744.7h744.7V151.3h93.1V-128H0V802.9zM977.5 896H651.6v-93.1H865L386 323.8l65.8-65.8 479.1 479.1v-213.4h93.1V896h-46.5z"  horiz-adv-x="1024" />

    
    <glyph glyph-name="dislike" unicode="&#59310;" d="M809.8 896C881 896 942.9 843.6 953.7 773.5l68.6-439.7c6.5-42.2-6-84.8-34.4-116.8-28.1-31.8-69.1-49.2-111.5-49.3H642.7v-102.4c0-106.5-87.8-193.2-195.8-193.2h-28.6l-199 393.3H0V896H809.8z m67.7-635.4c16 0 30.6 6.5 40.7 17.9 10 11.3 14.4 26.2 12.1 40.8l-68.6 439.8c-3.9 25.1-26.3 43.7-52.4 43.7H294.4V323l179.3-354.4c43.6 11.5 75.8 50.5 75.8 96.6V260.6h328zM201.3 802.9H93.1v-444.5h108.2V802.9z"  horiz-adv-x="1024" />

    
    <glyph glyph-name="like" unicode="&#59311;" d="M214.2-128c-71.2 0-133.1 52.4-143.9 122.5L1.7 434.3c-6.5 42.2 6 84.8 34.4 116.8 28.1 31.8 69.1 49.2 111.5 49.3h233.7V702.8C381.3 809.3 469.2 896 577.1 896h28.6l199-393.3H1024V-128H214.2z m-67.7 635.4c-16 0-30.6-6.5-40.7-17.9-10-11.3-14.4-26.2-12.1-40.8l68.6-439.8c3.9-25.1 26.3-43.7 52.4-43.7h514.9V445L550.3 799.4c-43.6-11.5-75.8-50.5-75.8-96.6v-195.5H147.2c-0.2 0.1-0.5 0.1-0.7 0.1z m676.2-542.3h108.2V409.6H822.7v-444.5z"  horiz-adv-x="1024" />

    
    <glyph glyph-name="zoom-out" unicode="&#59312;" d="M760.6 206.2c57.3 72.6 91.8 163.9 91.8 263.3 0 234.9-191.1 426-426 426S0.4 704.4 0.4 469.5s191.1-426 426-426c99.4 0 190.8 34.5 263.3 91.8l262.9-262.9 70.9 70.9-262.9 262.9z m-102.7 34.5l-2.6-2.6c-58.9-58.2-139.7-94.3-228.9-94.3-179.6 0-325.7 146.1-325.7 325.7s146.1 325.7 325.7 325.7 325.7-146.1 325.7-325.7c0.1-89.1-36-170-94.2-228.8zM251.1 519.7h350.8v-100.2H251.1z"  horiz-adv-x="1024" />

    
    <glyph glyph-name="zoom-in" unicode="&#59313;" d="M760.6 206.2c57.3 72.6 91.8 163.9 91.8 263.3 0 234.9-191.1 426-426 426S0.4 704.4 0.4 469.5s191.1-426 426-426c99.4 0 190.8 34.5 263.3 91.8l262.9-262.9 70.9 70.9-262.9 262.9z m-102.7 34.5l-2.6-2.6c-58.9-58.2-139.7-94.3-228.9-94.3-179.6 0-325.7 146.1-325.7 325.7s146.1 325.7 325.7 325.7 325.7-146.1 325.7-325.7c0.1-89.1-36-170-94.2-228.8zM476.6 644.9H376.3v-125.2H251.1v-100.3h125.2v-125.3h100.3V419.4h125.3V519.7H476.6z"  horiz-adv-x="1024" />

    
    <glyph glyph-name="dollor" unicode="&#59314;" d="M554.7 424.3V722.5C661 708.1 736 641.7 736 576h74.7c0 118.2-111.3 216-256 232.3V896h-85.3v-87.7c-144.7-16.3-256-114.1-256-232.3s111.3-216 256-232.3v-298.2C363 59.9 288 126.3 288 192h-74.7c0-118.2 111.3-216 256-232.3v-87.7h85.3v87.7c144.7 16.3 256 114.1 256 232.3 0.1 118.2-111.2 216-255.9 232.3zM288 576c0 65.7 75 132.1 181.3 146.5v-292.9C363 443.9 288 510.3 288 576z m266.7-530.5v293C661 324.1 736 257.7 736 192s-75-132.1-181.3-146.5z"  horiz-adv-x="1024" />

    
    <glyph glyph-name="rmb" unicode="&#59315;" d="M555.9 486.1v-175.4h307v-87.8h-307V-128h-87.8V222.9h-307v87.8h307V486.1h-307v87.8H465L204.9 834 267 896l248.1-248.2L763.3 896l62-62-248.1-248.2-12-11.9h297.7v-87.8z"  horiz-adv-x="1024" />

    
    <glyph glyph-name="camera" unicode="&#59316;" d="M1024-81.5H0V709.8h254.4l93.1 139.6h329.1l93.1-139.6H1024v-791.3zM93.1 11.6h837.8V616.7H719.8l-93.1 139.6H397.3l-93.1-139.6H93.1v-605.1zM512 151.3c-128.3 0-232.7 104.4-232.7 232.7S383.7 616.7 512 616.7 744.7 512.3 744.7 384 640.3 151.3 512 151.3z m0 372.3c-77 0-139.6-62.6-139.6-139.6S435 244.4 512 244.4 651.6 307 651.6 384 589 523.6 512 523.6z"  horiz-adv-x="1024" />

    
    <glyph glyph-name="filter" unicode="&#59317;" d="M472.1-69.3h-90.7V455.9L0 837.3h1024L656 408 453.3 610.7l64.1 64.1 133.4-133.4 176 205.3h-608L472 493.5v-562.8z m181.3 226.6h-90.7V384h90.7v-226.7z"  horiz-adv-x="1024" />

    
    <glyph glyph-name="triangle-down" unicode="&#59318;" d="M512 81.3L0 686.7h1024z"  horiz-adv-x="1024" />

    
    <glyph glyph-name="triangle-up" unicode="&#59319;" d="M512 686.7l512-605.4H0z"  horiz-adv-x="1024" />

    
    <glyph glyph-name="events-management" unicode="&#59320;" d="M460.9 837.2L0 376.7 429.3-53l460.9 460.4 2.3 429.8H460.9z m341.8-393.3L429.4 71 124 376.7l373.2 372.8h307.1l-1.6-305.6zM594.6-69.2l-62 62 403.7 403.7V794.9h87.7v-434.7zM650.8 663.4c-17.4 0-33.8-6.8-46.1-19.3-12.4-12.5-19.1-28.9-19.1-46.5s6.8-34 19.1-46.5c12.4-12.5 28.7-19.3 46.7-19.3 17.4 0 33.8 6.8 46.7 19.3 25.3 25.5 25.3 67.5 0 93.5-13.5 12-29.8 18.8-47.3 18.8z"  horiz-adv-x="1024" />

    
    <glyph glyph-name="events" unicode="&#59321;" d="M530.2 896L0 366.4 493.8-128 1024 401.6V896H530.2z m392.9-452.6L493.9 14.7 142.6 366.3l429.3 428.8h351.2v-351.7zM748.7 696.1c-20.1 0-38.8-7.8-53.1-22.2-14.2-14.3-22-33.3-22-53.5s7.8-39.1 22-53.5c14.2-14.3 33-22.2 53.7-22.2 20.1 0 38.8 7.8 53.7 22.2 29.1 29.3 29.1 77.6 0 107.6-15.5 13.8-34.3 21.6-54.3 21.6z"  horiz-adv-x="1024" />

    
    <glyph glyph-name="label" unicode="&#59322;" d="M102.4-128L512 76.8 921.6-128V896H102.4v-1024z m102.4 921.6h614.4v-755.9L512 191.3 204.8 37.7V793.6z"  horiz-adv-x="1024" />

    
    <glyph glyph-name="label-fill" unicode="&#59323;" d="M102.4-128L512 76.8 921.6-128V896H102.4v-1024z"  horiz-adv-x="1024" />

    
    <glyph glyph-name="heart-fill" unicode="&#59324;" d="M512 739.3l66.6 57.5c48 30.6 104.8 48 163.8 48 158.8 0 281.6-120.5 281.6-276.2 0-190.9-174-344-437.8-580.1L512-76.8l-74.2 65.3C174.1 224.5 0 377.7 0 568.6 0 724.3 122.9 844.8 281.6 844.8c59 0 115.8-17.4 163.8-48l66.6-57.5z"  horiz-adv-x="1024" />

    
    <glyph glyph-name="heart" unicode="&#59325;" d="M512 739.3l66.6 57.5c48 30.6 104.8 48 163.8 48 158.8 0 281.6-120.5 281.6-276.2 0-190.9-174-344-437.8-580.1L512-76.8l-74.2 65.3C174.1 224.5 0 377.7 0 568.6 0 724.3 122.9 844.8 281.6 844.8c59 0 115.8-17.4 163.8-48l66.6-57.5z m6-674.5c245.8 220 318 292.7 368.3 382.3 24.1 43 35.3 81.9 35.3 121.4 0 98.7-76.6 173.8-179.2 173.8-58.5 0-115.1-26.2-152.9-70L512 582.6l-77.5 89.8c-37.8 43.8-94.4 70-152.9 70-102.6 0-179.2-75.1-179.2-173.8 0-39.6 11.2-78.5 35.3-121.4 50.3-89.6 122.5-162.3 367.7-381.7l6.6-5.8 6 5.1z"  horiz-adv-x="1024" />

    
    <glyph glyph-name="wishlist-fill" unicode="&#59326;" d="M670 549.5l354-51.4-256.2-247.8 60.4-349.7L512 65.8 195.8-99.4l60.4 349.7L0 498.1l354 51.4L512 867.4l158-317.9z"  horiz-adv-x="1024" />

    
    <glyph glyph-name="wishlist" unicode="&#59327;" d="M670 549.5l354-51.4-256.2-247.8 60.4-349.7L512 65.8 195.8-99.4l60.4 349.7L0 498.1l354 51.4L512 867.4l158-317.9z m155.9-115.4l-216.7 31.5L512 661.2l-97.2-195.6-216.7-31.5 156.8-151.6-37.1-214.6L512 169.3l194.2-101.4-37.1 214.6 156.8 151.6z"  horiz-adv-x="1024" />

    
    <glyph glyph-name="wishlist-star" unicode="&#59328;" d="M1024 498.1l-354 51.4L512 867.4 354 549.5 0 498.1l256.2-247.8-60.4-349.7L512 65.8l316.2-165.1-60.4 349.7L1024 498.1z m-512-64v-264.8L317.8 67.9l37.1 214.6-156.8 151.6 216.7 31.5L512 661.2v-227.1z"  horiz-adv-x="1024" />

    
    <glyph glyph-name="wishlist-star1" unicode="&#59329;" d="M1024 498.1l-354 51.4L512 867.4v-801.5l316.2-165.1-60.4 349.7L1024 498.1z"  horiz-adv-x="1024" />

    
    <glyph glyph-name="reduce" unicode="&#59330;" d="M204.8 435.2v-102.4h614.4V435.2H204.8zM0 896h1024v-1024H0V896z m102.4-102.4v-819.2h819.2V793.6H102.4z"  horiz-adv-x="1024" />

    
    <glyph glyph-name="add" unicode="&#59331;" d="M0 896h1024v-1024H0V896z m460.8-460.8h-256v-102.4h256v-256h102.4v256h256V435.2h-256v256H460.8v-256zM102.4 793.6v-819.2h819.2V793.6H102.4z"  horiz-adv-x="1024" />

    
    <glyph glyph-name="up" unicode="&#59332;" d="M0 165.3l512 512 512-512-74.6-74.6L512 528.1 74.6 90.7z"  horiz-adv-x="1024" />

    
    <glyph glyph-name="down" unicode="&#59333;" d="M0 602.7l512-512 512 512-74.6 74.6L512 239.9 74.6 677.3z"  horiz-adv-x="1024" />

    
    <glyph glyph-name="right" unicode="&#59334;" d="M293.3-128l512 512-512 512-74.6-74.6L656.1 384 218.7-53.4z"  horiz-adv-x="1024" />

    
    <glyph glyph-name="lift" unicode="&#59335;" d="M730.7-128l-512 512 512 512 74.6-74.6L367.9 384l437.4-437.4z"  horiz-adv-x="1024" />

    
    <glyph glyph-name="circle-up" unicode="&#59336;" d="M753 317.8l-241 241-241-241 72.4-72.4L512 414l168.6-168.6 72.4 72.4zM512-128C229.2-128 0 101.2 0 384S229.2 896 512 896s512-229.2 512-512-229.2-512-512-512z"  horiz-adv-x="1024" />

    
    <glyph glyph-name="circle-down" unicode="&#59337;" d="M271 450.2l241-241 241 241-72.4 72.4L512 354 343.4 522.6 271 450.2zM512 896c282.8 0 512-229.2 512-512s-229.2-512-512-512S0 101.2 0 384 229.2 896 512 896z"  horiz-adv-x="1024" />

    
    <glyph glyph-name="circle-right" unicode="&#59338;" d="M373.4 552.6L542 384 373.4 215.4l72.4-72.4 241 241-241 241-72.4-72.4zM512 896c282.8 0 512-229.2 512-512s-229.2-512-512-512S0 101.2 0 384 229.2 896 512 896z"  horiz-adv-x="1024" />

    
    <glyph glyph-name="circle-lift" unicode="&#59339;" d="M578.2 625l-241-241 241-241 72.4 72.4L482 384l168.6 168.6-72.4 72.4zM1024 384c0-282.8-229.2-512-512-512S0 101.2 0 384 229.2 896 512 896s512-229.2 512-512z"  horiz-adv-x="1024" />

    
    <glyph glyph-name="arrow-lift" unicode="&#59340;" d="M222.8 444.3H1024v-120.5H218.4l227.2-229.4-82.8-84.9L0 384.1l364.1 374.4 81.2-83.2z"  horiz-adv-x="1024" />

    
    <glyph glyph-name="arrow-right" unicode="&#59341;" d="M801.2 444.3H0v-120.5h805.6L578.4 94.4l82.8-84.9L1024 384.1 659.9 758.5l-81.2-83.2z"  horiz-adv-x="1024" />

    
    <glyph glyph-name="dustbin-fill" unicode="&#59342;" d="M972.8 742.4H768V896H256v-153.6H51.2V640h921.6zM768 537.6H153.6V-128h716.8V537.6H768zM460.8 128l-102.4-51.2V435.2L460.8 384v-256z m204.8 256v-307.2L563.2 128V384l102.4 51.2V384z"  horiz-adv-x="1024" />

    
    <glyph glyph-name="dustbin" unicode="&#59343;" d="M665.6 76.8L563.2 128V384l102.4 51.2V128zM358.4 76.8V435.2L460.8 384v-256zM358.4 793.6h307.2v-51.2H358.4v51.2z m614.4-51.2H768V896H256v-153.6H51.2V640h921.6V742.4zM768-128H153.6V537.6H256v-563.2h512V537.6h102.4V-128z"  horiz-adv-x="1024" />

    
    <glyph glyph-name="help-fill" unicode="&#59344;" d="M874 746.1C774.3 846 643.2 896 512.2 896 381 896 250.1 846 150 745.9c-200-200-200-524 0-724 99.9-100 231-149.9 362-149.9s262.1 50 362 150c200 199.9 200 524.1 0 724.1zM558.6 109.7h-93.1v93.1h93.1v-93.1z m102.3 331.8c-11.2-20.3-31.7-43.2-62.4-70.5-18.1-16-29.3-27.2-33.4-32.9-4.2-5.8-7.2-12.4-9.2-19.7-2.1-7.3-3.4-22-3.9-44l-0.5-25.1h-89.7l-0.3 13.7-0.2 11.4c-0.2 11.8-0.3 15.1-0.3 18.1 0 25.7 3.8 48.7 11.4 68.3 5.8 15 14.8 30 27.2 45 8.5 10.4 22.8 24.2 44.7 43.6 17.8 15.6 29.7 28.3 34 35.8 3.8 6.8 5.7 14.1 5.7 22 0 15.6-6 29-18.7 41.2-13 12.5-28.4 18.6-47.4 18.6-18.5 0-33.1-5.4-44.8-16.4-12.1-11.2-20.6-30.3-25-58l-4-24.9-98.8 14.2 3 24.9c6.1 50.2 24.9 89.7 56.5 117.7 30.8 27 68 38.6 111.9 38.6 43.9 0 81.8-9.7 112.1-41.4 30.3-31.8 49.9-67.5 49.9-110.6 0-24.9-6-48.4-17.8-69.6z"  horiz-adv-x="1024" />

    
    <glyph glyph-name="help" unicode="&#59345;" d="M465.5 202.8h93.1v-93.1h-93.1zM404.8 624.5c-31.6-28-50.4-67.5-56.5-117.7l-3-24.9 98.8-14.2 4 24.9c4.4 27.7 12.9 46.8 25 58 11.7 11 26.3 16.4 44.8 16.4 19 0 34.4-6.1 47.4-18.6 12.7-12.2 18.7-25.6 18.7-41.2 0-7.9-1.9-15.2-5.7-22-4.3-7.5-16.2-20.2-34-35.8-21.9-19.4-36.2-33.2-44.7-43.6-12.4-15-21.4-30-27.2-45-7.6-19.6-11.4-42.6-11.4-68.3 0-3 0.1-6.3 0.3-18.1l0.2-11.4 0.3-13.7h89.7l0.5 25.1c0.5 22 1.8 36.7 3.9 44 2 7.3 5 13.9 9.2 19.7 4.1 5.7 15.3 16.9 33.4 32.9 30.7 27.3 51.2 50.2 62.4 70.5 11.8 21.2 17.8 44.7 17.8 69.6 0 43.1-19.6 78.8-49.9 110.6-30.3 31.7-68.2 41.4-112.1 41.4-43.9 0-81.1-11.6-111.9-38.6zM874 746.1C774.3 846 643.2 896 512.2 896 381 896 250.1 846 150 745.9c-200-200-200-524 0-724 99.9-100 231-149.9 362-149.9s262.1 50 362 150c200 199.9 200 524.1 0 724.1z m-65.8-658.3c-40.1-40.1-86.7-70.9-138.6-92-50-20.3-103.6-30.8-157.6-30.7-54.4 0-107.6 10.3-157.6 30.7-51.9 21-98.5 52.1-138.6 92-40.1 40.1-70.9 86.7-92 138.6C103.5 276.4 93 330 93.1 384c0 54.4 10.3 107.6 30.7 157.6 21 51.9 52.1 98.5 92 138.6 40.1 40.1 86.7 70.9 138.6 92 50 20.4 103.1 30.7 157.6 30.7 54.4 0 107.6-10.3 157.7-30.7 51.9-21 98.5-52.1 138.6-92 40.1-40.1 70.9-86.7 92-138.6 20.2-50 30.7-103.6 30.6-157.6 0-54.4-10.4-107.6-30.7-157.6-21-51.9-52.1-98.5-92-138.6z"  horiz-adv-x="1024" />

    
    <glyph glyph-name="edit-black" unicode="&#59346;" d="M242.3 180.4h484.6v-91.9H242.3v91.9z m0 220.3h484.6v-91.9H242.3v91.9z m715.6 433L646.4 522.2l-62.3 62.3L895.6 896l62.3-62.3zM903.2-128H66.1V841.3h484.6v-88.1H154.2v-793h660.9V488.8h88.1V-128z"  horiz-adv-x="1024" />

    
    <glyph glyph-name="load" unicode="&#59347;" d="M531.7 695.5c0-18-14.6-32.5-32.5-32.5-18 0-32.5 14.6-32.5 32.5v168c0 18 14.6 32.5 32.5 32.5 18 0 32.5-14.6 32.5-32.5v-168zM531.7-95.5c0-18-14.6-32.5-32.5-32.5-18 0-32.5 14.6-32.5 32.5v168c0 18 14.6 32.5 32.5 32.5 18 0 32.5-14.6 32.5-32.5v-168zM371.5 670c9-15.6 3.7-35.5-11.9-44.4-15.6-9-35.5-3.7-44.5 11.9l-84 145.5c-9 15.6-3.7 35.5 11.9 44.4 15.6 9 35.5 3.7 44.5-11.9l84-145.5zM767.2-15c9-15.6 3.7-35.4-11.9-44.4-15.6-9-35.5-3.6-44.5 11.9l-84 145.5c-9 15.6-3.7 35.5 11.9 44.4 15.6 9 35.5 3.7 44.5-11.9l84-145.5zM245.5 567.9c15.6-9 20.9-28.9 11.9-44.4-9-15.6-28.9-20.9-44.5-11.9l-145.5 84c-15.6 9-20.9 28.9-11.9 44.4 9 15.6 28.9 20.9 44.5 11.9l145.5-84zM930.9 172.4c15.6-9 20.9-28.9 11.9-44.4-9-15.6-28.9-20.9-44.5-11.9l-145.5 84c-15.6 9-20.9 28.9-11.9 44.4 9 15.6 28.9 20.9 44.5 11.9l145.5-84zM198.2 409.6c17.8 0 32.2-11.5 32.2-25.6 0-14.1-14.4-25.6-32.2-25.6h-166C14.4 358.4 0 369.9 0 384c0 14.1 14.4 25.6 32.2 25.6h166zM991.8 409.6c17.8 0 32.2-11.5 32.2-25.6 0-14.1-14.4-25.6-32.2-25.6h-166c-17.8 0-32.2 11.5-32.2 25.6 0 14.1 14.4 25.6 32.2 25.6h166zM228.2 251.5c17 9.3 38.8 3.8 48.6-12.3 9.8-16 4-36.5-13-45.8l-159.2-86.5c-17-9.3-38.8-3.8-48.6 12.3-9.8 16-4 36.5 13 45.8l159.2 86.5zM945 661.1c17 9.3 38.8 3.8 48.6-12.3 9.8-16 4-36.5-13-45.8l-159.2-86.5c-17-9.3-38.8-3.8-48.6 12.3-9.8 16-4 36.5 13 45.8L945 661.1zM306.3 135.8c7.7 17 24.8 22.9 38.2 13 13.4-9.8 17.9-31.6 10.2-48.6L282.5-59c-7.7-17-24.8-22.9-38.2-13-13.4 9.8-17.9 31.6-10.2 48.6l72.2 159.2zM715.9 827c7.7 17 24.8 22.9 38.2 13 13.4-9.8 17.9-31.6 10.2-48.6l-72.1-159.2c-7.7-17-24.8-22.9-38.2-13-13.4 9.8-17.9 31.6-10.2 48.6L715.9 827z"  horiz-adv-x="1024" />

    
    <glyph glyph-name="shopping-bag-fill" unicode="&#59348;" d="M907 673.4H779.2C749.6 821.8 660.5 896 512 896S274.4 821.8 244.9 673.4H116.5L66.8-128h890.4L907 673.4zM512 807c95.6 0 154.9-44.6 178.1-133.6H333.9C357.1 762.5 416.4 807 512 807z"  horiz-adv-x="1024" />

    
    <glyph glyph-name="shopping-bag" unicode="&#59349;" d="M907 673.4H779.2C749.6 821.8 660.5 896 512 896S274.4 821.8 244.9 673.4H116.5L66.8-128h890.4L907 673.4zM512 807c95.6 0 154.9-44.6 178.1-133.6H333.9C357.1 762.5 416.4 807 512 807zM155.8-39l44.5 623.3h623.3L868.1-39H155.8z"  horiz-adv-x="1024" />

    
    <glyph glyph-name="shoppine-car-fill" unicode="&#59350;" d="M239.7 757.7c-1.5 6.5-3.5 12.9-6 19-13 32.6-37.9 58.3-70.1 72.2-32.2 13.9-68 14.4-100.6 1.4l-63-25 32.4-81.4 63 25c10.9 4.3 22.8 4.2 33.5-0.5 10.8-4.6 19.1-13.2 23.4-24.1 1.2-3 2.1-6.2 2.6-9.5l102-665.4L936.4 215l87.6 438.2-784.3 104.5zM410.6-4.1m-87.6 0a87.6 87.6 0 1 1 175.2 0 87.6 87.6 0 1 1-175.2 0ZM804.9-4.1m-87.6 0a87.6 87.6 0 1 1 175.2 0 87.6 87.6 0 1 1-175.2 0Z"  horiz-adv-x="1024" />

    
    <glyph glyph-name="shoppine-car" unicode="&#59351;" d="M366.7 740.8l-11.6-86.9 564.4-75.2-57.9-290.1-532.2-114-87.9 573.5c-1.5 9.9-4.1 19.5-7.8 28.6-13 32.6-37.9 58.3-70.1 72.2-32.2 13.9-68 14.4-100.6 1.4l-63-25 32.4-81.4 63 25c10.9 4.3 22.8 4.2 33.5-0.5 10.8-4.6 19.1-13.2 23.4-24.1 1.2-3 2.1-6.2 2.6-9.5l102-665.4L936.4 215l87.6 438.2-657.3 87.6zM410.6-4.1m-87.6 0a87.6 87.6 0 1 1 175.2 0 87.6 87.6 0 1 1-175.2 0ZM804.9-4.1m-87.6 0a87.6 87.6 0 1 1 175.2 0 87.6 87.6 0 1 1-175.2 0Z"  horiz-adv-x="1024" />

    
    <glyph glyph-name="logistics-fill" unicode="&#59352;" d="M1024 810.7v-767.9H846.1c-17.6-49.7-65-85.4-120.7-85.4S622.1-7 604.6 42.7H419.4c-17.6-49.7-65-85.4-120.7-85.4S195.5-7 177.9 42.7H0V298.6c0 94.3 76.4 170.7 170.7 170.7h26.1l14.1 43.1h-89.2l43.8 178.8c20.5 91.7 70 119.5 204.8 119.5H1024zM441.7 469.3h-78.1L320 384h170.7l111.8 277.3H512l-70.3-192z"  horiz-adv-x="1024" />

    
    <glyph glyph-name="logistics" unicode="&#59353;" d="M768 85.3c0 23.6 19.1 42.7 42.7 42.7h42.7v0.2h85.3V725.4H370.3c-100.6 0-114.6-7.8-124.5-52.3l-35-160.7h-89.2l43.8 178.8C186 782.9 235.5 810.7 370.3 810.7H1024v-767.9H846.1c-17.6-49.7-65-85.4-120.7-85.4S622.1-7 604.6 42.7H419.4c-17.6-49.7-65-85.4-120.7-85.4S195.5-7 177.9 42.7H0V298.6c0 94.3 76.4 170.7 170.7 170.7h128l-52-85.3h-76.1c-47.1 0-85.3-38.2-85.3-85.3v-170.5h85.3v-0.2h42.7c23.6 0 42.7-19.1 42.7-42.7 0-23.5 19.1-42.6 42.6-42.6s42.6 19.1 42.6 42.6h0.1c0 23.6 19.1 42.7 42.7 42.7h256c23.6 0 42.7-19.1 42.7-42.7s19.1-42.7 42.7-42.7 42.6 19.2 42.6 42.7zM512 661.3h90.5L490.7 384H320l43.6 85.3h78.1z"  horiz-adv-x="1024" />

    
    <glyph glyph-name="map-fill" unicode="&#59354;" d="M279.3 44.9L0-34.9V709.8l279.3 79.8zM744.7-21.6V723.1L1024 802.9v-744.7zM651.6-23.3l-279.2 69.8V791.3l279.2-69.8z"  horiz-adv-x="1024" />

    
    <glyph glyph-name="map" unicode="&#59355;" d="M698.2 708.9L325.8 802 0 708.9V-34l325.8 93.1L698.2-34l325.8 93.1V802l-325.8-93.1z m-325.8-12.7l279.3-69.8v-552.8l-279.3 69.8V696.2zM93.1 640.5l186.2 53.2v-551.1L93.1 89.4V640.5z m837.8-511.2l-186.2-53.2V627.2l186.2 53.2v-551.1z"  horiz-adv-x="1024" />

    
    <glyph glyph-name="gps" unicode="&#59356;" d="M512-128L261.4 284.9c-129.5 213.4-126.6 398.2 8.2 520.2 133.7 121.1 351.2 121.1 484.8 0 134.8-122.1 137.7-306.9 8.2-520.2L512-128z m0 935.3c-66.1 0-132.1-22.8-182.4-68.4-127.5-115.5-66-285.4 8.2-407.6l174.2-287 174.2 287.1c74.1 122.2 135.7 292.1 8.2 407.6-50.3 45.5-116.3 68.3-182.4 68.3z m0-400.5c-86.2 0-156.4 69.7-156.4 155.5S425.8 717.7 512 717.7 668.4 648 668.4 562.3 598.2 406.8 512 406.8z m0 221.6c-37 0-67-29.7-67-66.1s30.1-66.1 67-66.1 67 29.7 67 66.1-30 66.1-67 66.1z"  horiz-adv-x="1024" />

    
    <glyph glyph-name="search" unicode="&#59357;" d="M1024-54.5L743.8 225.7c54.7 70.4 87.6 158.6 87.6 254.6C831.4 709.9 645.3 896 415.7 896S0 709.9 0 480.3s186.1-415.7 415.7-415.7c96 0 184.2 32.9 254.6 87.6L950.5-128l73.5 73.5z m-608.3 223c-171.9 0-311.8 139.8-311.8 311.8s139.8 311.8 311.8 311.8 311.8-139.8 311.8-311.8-139.9-311.8-311.8-311.8z"  horiz-adv-x="1024" />

    
    <glyph glyph-name="leave" unicode="&#59358;" d="M0 896v-1024h465.5v93.1H93.1V802.9h372.4V896zM814.6 645.8l-72.7-58.1 125.7-157.2H219.7v-93.1h647.9L741.9 180.3l72.7-58.1L1024 384z"  horiz-adv-x="1024" />

    
    <glyph glyph-name="login" unicode="&#59359;" d="M558.5 896v-93.1h372.4v-837.8H558.5v-93.1H1024V896zM594.9 645.8l-72.7-58.1 125.7-157.2H0v-93.1h647.9L522.2 180.3l72.7-58.1L804.3 384z"  horiz-adv-x="1024" />

    
    <glyph glyph-name="mycenter-fill" unicode="&#59360;" d="M513.3 645.6m-250.4 0a250.4 250.4 0 1 1 500.8 0 250.4 250.4 0 1 1-500.8 0ZM65.6-128C112.8 189.4 262 348 513.1 348s399.6-158.7 445.3-476H65.6z"  horiz-adv-x="1024" />

    
    <glyph glyph-name="mycenter" unicode="&#59361;" d="M513.3 495.4c83 0 150.2 67.3 150.2 150.2s-67.3 150.2-150.2 150.2-150.2-67.3-150.2-150.2 67.2-150.2 150.2-150.2z m0-100.1c-138.3 0-250.4 112.1-250.4 250.4S375 896 513.3 896s250.4-112.1 250.4-250.4-112.2-250.3-250.4-250.3zM65.6-128C112.8 189.4 262 348 513.1 348s399.6-158.7 445.3-476H852.3c-20.6 245.6-133.9 368.4-340 368.4S192.4 117.6 170.9-128H65.6z"  horiz-adv-x="1024" />

    
    <glyph glyph-name="phone" unicode="&#59362;" d="M144.6 711.7c-10.8-34.8 0.2-84.6 30.1-165 46.1-118.4 123.2-220.1 206.1-313.9 83.3-87.7 225.9-196.5 301.3-230.9 75.4-34.4 122.4-36.2 153.4-13.8 31 22.4 50.3 52.4 57.7 81.7 7.4 29.3-18.3 57.3-54.9 81.5-36.6 24.2-62.7 29.8-76.1 24.5-13.5-5.3-28.8-27.1-53.8-52.7s-74.6-11.7-128.9 24.9c-35.8 26.9-74 56.9-162.7 140.5-88.6 83.6-181.5 257.6-146 296.5 35.5 39 52.5 50.9 56 66.9 3.5 16-4.3 40.5-35 79.3-30.7 38.9-41.5 50.2-65.9 50.1-24.5 0-72.1-41.3-81.3-69.6z m215.8-179.1c3.7 3.9 4.3 5.6 4.6 3.4 1.4-9.8 7-24.6 16.8-42.7C403 454 440.9 404 489.3 352c20.5-23.1 67.7-65 109.6-96.4 21-15.8 39.6-28.1 53.6-35.5 2.8 3.5 6 7.3 9.6 11.9 15.6 19.5 21.6 26.8 31.7 38 44.9 50.3 127.6 26.3 203.5-33.2 73.3-57.5 106.6-112.2 94-179.6-10.5-56.2-51.8-117.1-97.9-155.3-51.2-42.4-120-38.7-228.6 5.6-139 63.1-267 154.4-361.5 261.2C201.3 274.5 121.7 402 64.6 549.5c-35.1 99.9-41.4 153-27.6 204.6C56.3 812.5 162.7 900.2 220.4 895.8c2.5-0.2 4.3-0.3 9.5-0.5 10.6-0.5 16-0.9 23.4-2.2 40-7.2 70.1-34.5 119.6-105.1 54.5-77.7 68.6-119 60.3-158.3-4.9-31.3-24.4-53.6-72.8-97.1z"  horiz-adv-x="1024" />

    
    <glyph glyph-name="email-fill" unicode="&#59363;" d="M899.6 756.4H0v-744.8h1024V756.4H899.6z m31.3-139.7L698.2 387.2l232.7-236v-46.5h-46.5L638.5 337.5l-40.3-37.7c-23.5-21.8-52.2-33-86.2-33-33.9 0-62.7 11.2-86.2 33l-40.3 37.7-245.9-232.8H93.1V151.3l232.7 236L93.1 616.7v46.5h46.5l312-288c27.2-25.3 47.4-37.8 60.4-37.8s33.1 12.6 60.4 37.8l312 288h46.5v-46.5z"  horiz-adv-x="1024" />

    
    <glyph glyph-name="email" unicode="&#59364;" d="M698.2 387.2l232.7 229.5v-465.5l-232.7 236z m-312.7-49.7l40.3-37.7c23.4-21.8 52.2-33 86.2-33 34.1 0 62.7 11.2 86.2 33l40.3 37.7 245.9-232.7H139.6l245.9 232.7zM93.1 616.7l232.7-229.5-232.7-236V616.7z m479.3-241.4C545.1 350 525 337.5 512 337.5s-33.1 12.6-60.4 37.8l-312 288h744.7l-311.9-288z m-448 381.1H0v-744.8h1024V756.4H124.4z"  horiz-adv-x="1024" />

    
    <glyph glyph-name="url" unicode="&#59365;" d="M287.394465 218.193333c3.499933 6.599873 7.599854 20.899598 16.799677 30.199418C414.992008 360.890585 526.189867 472.78843 637.987714 584.186285c23.699544 23.699544 57.598891 22.099574 79.898461-0.399992 22.499567-22.699563 21.899578-53.898962-3.199938-79.098477C604.988349 394.689934 494.890469 284.992047 384.892588 175.294159c-17.799657-17.799657-38.699255-25.299513-63.098785-14.699717-21.79958 9.399819-32.799368 26.699486-34.399338 57.598891zM1023.98028 632.885347c-0.399992-72.6986-25.799503-135.597389-76.698523-187.396391-56.298916-57.298897-113.397816-113.69781-170.396718-170.196723-27.099478-26.899482-60.398837-28.899443-83.298396-5.799888-23.799542 24.099536-21.499586 54.398952 6.699871 82.798406 54.298954 54.49895 109.497891 108.197916 163.196857 163.296855 66.498719 67.898692 69.298665 159.696925 7.999846 221.295738-58.598872 58.998864-155.497005 59.19886-216.795825-0.399992-55.698927-54.298954-109.897884-110.197878-165.396815-164.59683-33.399357-32.599372-83.998382-20.999596-92.898211 22.899559-3.199938 15.799696 3.199938 39.599237 14.099729 51.099016C470.890932 709.58387 531.18977 773.682636 596.988503 831.481522 677.486953 902.180161 771.885135 913.879936 870.183242 870.980762c95.098169-41.399203 153.497044-134.697406 153.797038-238.095415zM248.595213-128c-94.998171 5.499894-180.596522 52.398991-224.895669 156.696982-44.999133 105.897961-24.999519 204.496062 52.698985 288.594443 54.998941 59.498854 114.097803 115.29778 171.796691 172.196684 25.099517 24.799522 65.198744 25.599507 86.998325 2.699948 21.999576-23.099555 19.599623-54.798945-6.799869-81.298435-56.698908-56.798906-114.097803-112.997824-170.196723-170.396718-84.498373-86.498334-46.999095-223.995686 69.698658-254.99509 48.499066-12.899752 95.198167-3.999923 132.097456 30.399415 59.398856 55.298935 115.29778 114.097803 174.396642 169.496736 12.499759 11.699775 33.299359 21.899578 49.499047 20.799599 43.499162-2.59995 65.498739-55.298935 35.399318-86.69833-64.698754-67.398702-130.697483-133.797423-200.196145-196.196222-42.299185-37.89927-97.398124-50.999018-170.496716-51.299012z"  horiz-adv-x="1024" />

    
    <glyph glyph-name="alipay" unicode="&#59366;" d="M489.9 223.8c-160.2-203.5-351-139.9-381.5-127.2C32 116.9 6.6 256.8 100.7 300.1c160.2 50.9 300.1-7.6 401.9-58.5-7.6-10.2-12.7-17.8-12.7-17.8z m165.3 58.5c71.2 127.2 96.7 249.3 96.7 249.3H515.3V618h279.8v38.2H515.3V791H388.1v-134.8H133.8V618h254.3v-89H169.4v-38.2h440c0-7.6 0-7.6-7.6-12.7 0-45.8-33.1-109.4-58.5-160.2C217.7 445 123.6 368.7 98.2 356-118 203.4 85.5 12.6 118.5 17.7c228.9-50.9 376.4 45.8 478.2 165.3 7.6-7.6 12.7-7.6 20.3-7.6 71.2-38.2 407-198.4 407-198.4V167.8c-50.9 5.1-236.5 68.7-368.8 114.5z"  horiz-adv-x="1024" />

    
    <glyph glyph-name="qq" unicode="&#59367;" d="M76 106.6c-36.9 27.3-33.6 96.8-9.7 163.3 24.1 67 84.8 131.6 85.5 145.8 2.4 53-5.2 61.8 0 75.8 11.6 31.2 25.8 19.2 25.8 35.4C177.6 730.7 329.1 896 516 896c186.9 0 338.4-165.3 338.4-369.2 0-7.8 20.3 0 30-35.4 2-7.3 3.4-35.6 1-75.8-1.1-19.3 51.5-42.8 78.7-145.8 27.2-103 0-151.6-13.6-163.3-16.9-14.4-36.3 10.6-52 35.7-14.7 23.5-26.1 46.9-29.1 38-14.8-44.9-21.8-75-65.6-123.9-2.3-2.6 50.6-21.7 65.6-62.5 14.4-39.1 42.3-101.1-140.4-120.5-57.5-6.1-106.4 10.7-140.6 27.6-29.6 14.6-48.2 29.2-51.8 28.9-14.3-1.3-7.9 0-23.3 0-12.6 0-13.4-0.9-25.3 0-3.2 0.2-38.9-56.5-198.2-56.5-123.5 0-155.5 77.7-130.6 120.5 24.8 42.8 66.3 55.2 60.4 62-28.7 33.4-48.6 69-60.4 101.2-2.9 8-5.4 15.8-7.3 23.3-2.2 8.3-11.3-14.9-24.3-38-11.1-19.9-25.2-39.8-40.1-39.8-3.9 0-7.7 1.2-11.5 4.1z"  horiz-adv-x="1024" />

    
    </font>
</defs>
</svg>
